<?xml version="1.0" encoding="UTF-8" standalone="no"?>
<!-- Created with Inkscape (http://www.inkscape.org/) -->

<svg
   xmlns:dc="http://purl.org/dc/elements/1.1/"
   xmlns:cc="http://creativecommons.org/ns#"
   xmlns:rdf="http://www.w3.org/1999/02/22-rdf-syntax-ns#"
   xmlns:svg="http://www.w3.org/2000/svg"
   xmlns="http://www.w3.org/2000/svg"
   xmlns:xlink="http://www.w3.org/1999/xlink"
   xmlns:sodipodi="http://sodipodi.sourceforge.net/DTD/sodipodi-0.dtd"
   xmlns:inkscape="http://www.inkscape.org/namespaces/inkscape"
   width="524.40942"
   height="372.04724"
   id="svg2"
   version="1.1"
   inkscape:version="0.48.3.1 r9886"
   sodipodi:docname="flyerA6-front-coffeemaker_plus_toaster.svg"
   inkscape:export-filename="/nfs/daten/daten/grafik/netz39/A6/flyerA6-front-coffeemaker_plus_toaster.png"
   inkscape:export-xdpi="300"
   inkscape:export-ydpi="300">
  <defs
     id="defs4">
    <filter
       inkscape:collect="always"
       id="filter3794">
      <feGaussianBlur
         inkscape:collect="always"
         stdDeviation="0.13742956"
         id="feGaussianBlur3796" />
    </filter>
    <clipPath
       clipPathUnits="userSpaceOnUse"
       id="clipoutline1">
      <path
         inkscape:connector-curvature="0"
         id="outline1"
         d="m 22.42,17.2 12.96,12.95 -2.5,8.78 -8.78,2.5 -12.96,-12.96 -5.86,5.86 14.89,21.46 17.56,-3.34 61.63,65.62 c 9.44,9.51 22.17,-4.75 13.34,-12.87 L 46.85,42.92 50.86,25.16 28.72,10.89 22.42,17.2 z m 81.06,91.97 c 1.68,-1.68 4.4,-1.68 6.08,0 1.68,1.68 1.68,4.4 0,6.08 -1.68,1.67 -4.4,1.67 -6.08,0 -1.68,-1.68 -1.68,-4.4 0,-6.08 z" />
    </clipPath>
    <linearGradient
       xlink:href="#WhiteTransparent"
       id="lg55"
       x1="550.96002"
       y1="-137.5"
       x2="655.41998"
       y2="-241.2"
       gradientUnits="userSpaceOnUse"
       gradientTransform="matrix(0.26,0,0,0.26,-106.57,101.57)" />
    <linearGradient
       id="WhiteTransparent">
      <stop
         style="stop-color:white;stop-opacity:1"
         offset="0"
         id="stop6" />
      <stop
         style="stop-color:white;stop-opacity:0"
         offset="1"
         id="stop8" />
    </linearGradient>
    <linearGradient
       xlink:href="#WhiteTransparent"
       id="lg51"
       x1="646.23999"
       y1="-252.60001"
       x2="607.65997"
       y2="-186.25999"
       gradientUnits="userSpaceOnUse"
       gradientTransform="matrix(0.2,0,0,0.2,-80.94,88.3)" />
    <linearGradient
       id="linearGradient3072">
      <stop
         style="stop-color:white;stop-opacity:1"
         offset="0"
         id="stop3074" />
      <stop
         style="stop-color:white;stop-opacity:0"
         offset="1"
         id="stop3076" />
    </linearGradient>
    <linearGradient
       xlink:href="#BlackTransparent"
       id="lgdg"
       x1="73.879997"
       y1="66.199997"
       x2="84.300003"
       y2="86.68"
       gradientTransform="translate(-0.30267,-3.20138)"
       gradientUnits="userSpaceOnUse" />
    <linearGradient
       id="BlackTransparent">
      <stop
         style="stop-color:black;stop-opacity:1"
         offset="0"
         id="stop11" />
      <stop
         style="stop-color:black;stop-opacity:0"
         offset="1"
         id="stop13" />
    </linearGradient>
    <linearGradient
       gradientUnits="userSpaceOnUse"
       xlink:href="#BlackTransparent"
       id="lg19"
       x1="2482.957"
       y1="6145.3078"
       x2="2375.4978"
       y2="6037.5261" />
    <linearGradient
       id="linearGradient3083">
      <stop
         style="stop-color:black;stop-opacity:1"
         offset="0"
         id="stop3085" />
      <stop
         style="stop-color:black;stop-opacity:0"
         offset="1"
         id="stop3087" />
    </linearGradient>
    <linearGradient
       xlink:href="#WhiteTransparent"
       id="lg16"
       x1="577.03003"
       y1="124"
       x2="626.09998"
       y2="124"
       gradientUnits="userSpaceOnUse"
       gradientTransform="matrix(0.0775,0.0775,-0.36,0.36,78.84,-44.8)"
       spreadMethod="pad" />
    <linearGradient
       id="linearGradient3090">
      <stop
         style="stop-color:white;stop-opacity:1"
         offset="0"
         id="stop3092" />
      <stop
         style="stop-color:white;stop-opacity:0"
         offset="1"
         id="stop3094" />
    </linearGradient>
    <linearGradient
       xlink:href="#WhiteTransparent"
       id="lg12"
       x1="146.14999"
       y1="288.57001"
       x2="146.14999"
       y2="368.26999"
       gradientUnits="userSpaceOnUse"
       gradientTransform="matrix(0.3,0.3,-0.09,0.09,78.84,-44.8)" />
    <linearGradient
       id="linearGradient3097">
      <stop
         style="stop-color:white;stop-opacity:1"
         offset="0"
         id="stop3099" />
      <stop
         style="stop-color:white;stop-opacity:0"
         offset="1"
         id="stop3101" />
    </linearGradient>
    <linearGradient
       xlink:href="#WhiteTransparent"
       id="lg09"
       x1="258.95999"
       y1="62.740002"
       x2="258.95999"
       y2="-1.72"
       gradientUnits="userSpaceOnUse"
       gradientTransform="matrix(0.33,0.33,-0.0944,0.0944,9.03,-48.1)" />
    <linearGradient
       id="linearGradient3104">
      <stop
         style="stop-color:white;stop-opacity:1"
         offset="0"
         id="stop3106" />
      <stop
         style="stop-color:white;stop-opacity:0"
         offset="1"
         id="stop3108" />
    </linearGradient>
    <linearGradient
       xlink:href="#BlackTransparent"
       id="lg05"
       x1="543.09998"
       y1="286.56"
       x2="419.88"
       y2="286.56"
       gradientUnits="userSpaceOnUse"
       gradientTransform="matrix(0.0998,0.0998,-0.28,0.28,78.84,-44.8)"
       spreadMethod="pad" />
    <linearGradient
       id="linearGradient3111">
      <stop
         style="stop-color:black;stop-opacity:1"
         offset="0"
         id="stop3113" />
      <stop
         style="stop-color:black;stop-opacity:0"
         offset="1"
         id="stop3115" />
    </linearGradient>
    <linearGradient
       xlink:href="#WhiteTransparent"
       id="lg02"
       x1="512.70001"
       y1="254.36"
       x2="615.59003"
       y2="254.83"
       gradientUnits="userSpaceOnUse"
       gradientTransform="matrix(0.0807,0.0775,-0.35,0.36,77.14,-45.89)" />
    <linearGradient
       id="linearGradient3118">
      <stop
         style="stop-color:white;stop-opacity:1"
         offset="0"
         id="stop3120" />
      <stop
         style="stop-color:white;stop-opacity:0"
         offset="1"
         id="stop3122" />
    </linearGradient>
    <clipPath
       clipPathUnits="userSpaceOnUse"
       id="clipoutline2">
      <path
         inkscape:connector-curvature="0"
         id="outline2"
         d="m 55.8,12 0.76,0.16 c 8.84,-2.94 28.68,8.64 24.26,18.96 -1.12,1.62 -0.93,4.5 0.42,6.31 L 56.43,62.25 c -1.39,-1.39 -4.48,-1.36 -5.9,0 L 9.5,101.63 c -3.74,3.59 -0.8,6.64 0.78,8.25 l 7.36,7.36 c 1.61,1.6 5.86,3.76 8.88,0.56 L 65.24,76.99 c 1.35,-1.42 1.36,-4.47 0,-5.87 0,0 0.01,-0.02 0,-0.02 L 90.15,46.2 c 2.63,2.37 5.113827,2.574854 7.47,1.93 4.55057,-1.245432 7.08725,3.206643 9.81,6.46 l -1.23,1.21 c -1.82,1.84 -1.65,4.94 0.39,6.98 2.04,2.04 5.15,2.21 6.97,0.39 l 8.14,-8.13 c 1.82,-1.84 1.65,-4.94 -0.4,-6.97 -1.84,-1.85 -4.51,-2.09 -6.37,-0.77 -5.58,-6.26 -2.65,-7.2 -10.01,-15.35 L 91.13,17.86 C 81.2,8.12 68.3,8.13 55.8,12 z" />
    </clipPath>
    <linearGradient
       xlink:href="#WhiteTransparent"
       id="lg1999"
       x1="637.03003"
       y1="69.989998"
       x2="638.29999"
       y2="118.3"
       gradientUnits="userSpaceOnUse"
       gradientTransform="matrix(0.1,0.1,-0.22,0.2,75.6,-33.53)" />
    <linearGradient
       id="linearGradient3127">
      <stop
         style="stop-color:white;stop-opacity:1"
         offset="0"
         id="stop3129" />
      <stop
         style="stop-color:white;stop-opacity:0"
         offset="1"
         id="stop3131" />
    </linearGradient>
  </defs>
  <sodipodi:namedview
     id="base"
     pagecolor="#ffffff"
     bordercolor="#666666"
     borderopacity="1.0"
     inkscape:pageopacity="0.0"
     inkscape:pageshadow="2"
     inkscape:zoom="1.0392643"
     inkscape:cx="282.08785"
     inkscape:cy="112.27766"
     inkscape:document-units="px"
     inkscape:current-layer="layer1"
     showgrid="false"
     inkscape:window-width="1137"
     inkscape:window-height="893"
     inkscape:window-x="777"
     inkscape:window-y="45"
     inkscape:window-maximized="0"
     showguides="true"
     inkscape:guide-bbox="true" />
  <metadata
     id="metadata7">
    <rdf:RDF>
      <cc:Work
         rdf:about="">
        <dc:format>image/svg+xml</dc:format>
        <dc:type
           rdf:resource="http://purl.org/dc/dcmitype/StillImage" />
        <dc:title></dc:title>
      </cc:Work>
    </rdf:RDF>
  </metadata>
  <g
     inkscape:label="Ebene 1"
     inkscape:groupmode="layer"
     id="layer1"
     transform="translate(0,-680.31491)">
    <path
       style="fill:none;stroke:#000000;stroke-width:2.17000008;stroke-linecap:butt;stroke-linejoin:miter;stroke-miterlimit:4;stroke-opacity:1;stroke-dasharray:none"
       d="m 274.86644,774.34651 c -4.61242,0.0131 -28.42558,12.97566 -28.61716,18.39913 3.41346,6.69276 78.11269,16.58287 84.96719,16.38344 5.30778,-0.87303 27.34282,-15.57493 27.73524,-21.25318 -12.24125,-6.9484 -78.90449,-13.77193 -84.08527,-13.52939 z"
       id="path2985"
       inkscape:connector-curvature="0"
       sodipodi:nodetypes="ccccc" />
    <path
       style="fill:none;stroke:#000000;stroke-width:2.17000008;stroke-linecap:butt;stroke-linejoin:miter;stroke-miterlimit:4;stroke-opacity:1;stroke-dasharray:none"
       d="m 246.25037,792.7738 c 0,16.64015 0.58689,61.59398 1.67681,62.05295 2.37849,2.99879 78.99776,18.69199 82.5741,14.93733 2.33184,-2.05518 0.94491,-45.1856 0.78682,-60.75755"
       id="path2983"
       inkscape:connector-curvature="0"
       sodipodi:nodetypes="cccc" />
    <path
       style="fill:none;stroke:#000000;stroke-width:2.17000008;stroke-linecap:butt;stroke-linejoin:miter;stroke-miterlimit:4;stroke-opacity:1;stroke-dasharray:none"
       d="m 330.77067,869.65496 c 9.01616,-7.22177 24.42228,-15.96383 27.43341,-21.19842 1.06335,-2.18433 1.44368,-51.85848 0.72237,-60.55187"
       id="path2986"
       inkscape:connector-curvature="0"
       sodipodi:nodetypes="ccc" />
    <path
       style="fill:none;stroke:#000000;stroke-width:2.17000008;stroke-linecap:butt;stroke-linejoin:round;stroke-miterlimit:4;stroke-opacity:1;stroke-dasharray:none"
       d="m 255.73253,792.36664 71.69785,11.82394 8.24276,-4.46902 -72.67032,-12.13394 z"
       id="path2988"
       inkscape:connector-curvature="0"
       sodipodi:nodetypes="ccccc" />
    <path
       sodipodi:nodetypes="ccccc"
       inkscape:connector-curvature="0"
       id="path2990"
       d="m 270.27062,782.41828 71.935,12.53536 9.72029,-4.31843 -72.98353,-12.78274 z"
       style="fill:none;stroke:#000000;stroke-width:2.17000008;stroke-linecap:butt;stroke-linejoin:round;stroke-miterlimit:4;stroke-opacity:1;stroke-dasharray:none" />
    <path
       style="fill:none;stroke:#000000;stroke-width:1.16999996;stroke-linecap:butt;stroke-linejoin:miter;stroke-miterlimit:4;stroke-opacity:1;stroke-dasharray:none"
       d="m 344.23971,807.60256 0,46.95058 3.02178,-2.90151 0.16768,-46.61522 z"
       id="path2992"
       inkscape:connector-curvature="0"
       sodipodi:nodetypes="ccccc" />
    <path
       style="fill:#ffffff;fill-opacity:1;stroke:#000000;stroke-width:0.97000003;stroke-linecap:butt;stroke-linejoin:round;stroke-miterlimit:4;stroke-opacity:1;stroke-dasharray:none"
       d="m 343.04401,837.37684 4.02434,-2.68288 c 0.69867,-1.17377 -1.27029,-0.64109 -1.57771,-1.31181 l 0.99082,-0.46831 c 1.08981,0.16799 1.387,0.82783 2.93442,-0.14821 l 2.17985,-1.42529 3.68897,0.50305 -9.5578,6.20418 z"
       id="path2994"
       inkscape:connector-curvature="0"
       sodipodi:nodetypes="ccccccccc" />
    <path
       style="fill:#ffffff;fill-opacity:1;stroke:#000000;stroke-width:0.97000003;stroke-linecap:butt;stroke-linejoin:round;stroke-miterlimit:4;stroke-opacity:1;stroke-dasharray:none"
       d="m 343.02757,837.65755 -0.0601,2.87604 2.68289,0.67073 0.0237,-2.93618 z"
       id="path3764"
       inkscape:connector-curvature="0"
       sodipodi:nodetypes="ccccc" />
    <path
       style="fill:#ffffff;fill-opacity:1;stroke:#000000;stroke-width:0.97000003;stroke-linecap:butt;stroke-linejoin:round;stroke-miterlimit:4;stroke-opacity:1;stroke-dasharray:none"
       d="m 345.76782,838.13614 -0.061,3.03117 9.3609,-6.10369 0.14393,-3.08942 z"
       id="path3766"
       inkscape:connector-curvature="0"
       sodipodi:nodetypes="ccccc" />
    <path
       style="fill:none;stroke:#000000;stroke-width:0.97000003;stroke-linecap:square;stroke-linejoin:bevel;stroke-miterlimit:4;stroke-opacity:1;stroke-dasharray:none"
       d="m 345.36339,833.58307 0.0209,1.73969"
       id="path3768"
       inkscape:connector-curvature="0" />
    <path
       style="fill:none;stroke:#000000;stroke-width:2.17292666;stroke-linecap:butt;stroke-linejoin:miter;stroke-miterlimit:4;stroke-opacity:1;stroke-dasharray:none"
       d="m 70.907127,787.74257 c 8.84815,8.99961 41.295103,3.02593 32.680113,-0.78089 -17.496186,-3.07821 -35.052333,-1.63194 -32.680113,0.78089 z"
       id="path3774"
       inkscape:connector-curvature="0"
       sodipodi:nodetypes="scs" />
    <path
       style="fill:none;stroke:#000000;stroke-width:2.17292666;stroke-linecap:butt;stroke-linejoin:miter;stroke-miterlimit:4;stroke-opacity:1;stroke-dasharray:none"
       d="m 50.987767,726.7101 c 2.05709,-3.11937 11.63268,-4.83509 21.04754,-5.78308 16.331237,-1.6444 37.754303,-2.37488 47.178743,0.45911 4.17989,1.25692 5.23307,4.1348 3.74342,6.37501"
       id="path3772"
       inkscape:connector-curvature="0"
       sodipodi:nodetypes="cssc" />
    <path
       style="fill:none;stroke:#000000;stroke-width:2.17292666;stroke-linecap:butt;stroke-linejoin:miter;stroke-miterlimit:4;stroke-opacity:1;stroke-dasharray:none"
       d="m 41.957477,874.79565 14.98521,-21.83617 79.551543,0.26988 -11.05264,21.70942 z"
       id="path3848"
       inkscape:connector-curvature="0"
       sodipodi:nodetypes="ccccc" />
    <path
       style="fill:none;stroke:#000000;stroke-width:2.17292666;stroke-linecap:butt;stroke-linejoin:miter;stroke-miterlimit:4;stroke-opacity:1;stroke-dasharray:none"
       d="m 57.022367,852.61054 c 3.32331,-25.3119 8.0023,-50.08152 21.37404,-71.37405"
       id="path3852"
       inkscape:connector-curvature="0"
       sodipodi:nodetypes="cc" />
    <path
       style="opacity:0.70999995;fill:#ffffff;fill-opacity:1;stroke:#000000;stroke-width:2.17292666;stroke-linecap:butt;stroke-linejoin:miter;stroke-miterlimit:4;stroke-opacity:1;stroke-dasharray:none"
       d="m 70.299037,787.40163 c -21.28946,31.99898 -20.527024,54.6787 -18.754724,76.13778 5.0145,13.70553 61.877687,9.85412 76.641547,0.20827 0.6148,-23.41097 0.28773,-45.54188 -23.07127,-76.07616"
       id="path3776"
       inkscape:connector-curvature="0"
       sodipodi:nodetypes="cccc" />
    <path
       style="fill:#ffffff;fill-opacity:1;stroke:#000000;stroke-width:2.17292666;stroke-linecap:butt;stroke-linejoin:miter;stroke-miterlimit:4;stroke-opacity:1;stroke-dasharray:none"
       d="m 110.24246,800.89603 c 6.06185,-0.64303 16.58135,1.53582 20.75823,3.29737 4.17688,1.76155 8.15675,25.11298 10.09998,36.19891 -0.72325,2.16968 -2.39752,3.35767 -4.48027,4.03475 -1.49213,-8.55828 -4.72357,-33.64243 -8.58566,-35.36212 -3.86209,-1.71969 -9.84014,-3.1712 -16.30789,-2.09642"
       id="path3780"
       inkscape:connector-curvature="0"
       sodipodi:nodetypes="czcczc" />
    <path
       style="fill:none;stroke:#000000;stroke-width:2.17292666;stroke-linecap:butt;stroke-linejoin:miter;stroke-miterlimit:4;stroke-opacity:1;stroke-dasharray:none"
       d="m 75.418587,812.36628 c 2.07566,0.90251 3.33217,1.16711 7.34318,0.90029"
       id="path3782"
       inkscape:connector-curvature="0"
       sodipodi:nodetypes="cc" />
    <path
       sodipodi:nodetypes="cc"
       inkscape:connector-curvature="0"
       id="path3784"
       d="m 75.004977,818.95438 c 2.07565,0.90251 3.33216,1.16711 7.34318,0.90029"
       style="fill:none;stroke:#000000;stroke-width:2.17292666;stroke-linecap:butt;stroke-linejoin:miter;stroke-miterlimit:4;stroke-opacity:1;stroke-dasharray:none" />
    <path
       style="fill:none;stroke:#000000;stroke-width:2.17292666;stroke-linecap:butt;stroke-linejoin:miter;stroke-miterlimit:4;stroke-opacity:1;stroke-dasharray:none"
       d="m 74.506467,825.6291 c 2.07565,0.90251 3.33216,1.16711 7.34318,0.90029"
       id="path3786"
       inkscape:connector-curvature="0"
       sodipodi:nodetypes="cc" />
    <path
       sodipodi:nodetypes="cc"
       inkscape:connector-curvature="0"
       id="path3788"
       d="m 74.506467,831.6291 c 2.07565,0.90251 3.33216,1.16711 7.34318,0.90029"
       style="fill:none;stroke:#000000;stroke-width:2.17292666;stroke-linecap:butt;stroke-linejoin:miter;stroke-miterlimit:4;stroke-opacity:1;stroke-dasharray:none" />
    <path
       style="fill:none;stroke:#000000;stroke-width:2.17292666;stroke-linecap:butt;stroke-linejoin:miter;stroke-miterlimit:4;stroke-opacity:1;stroke-dasharray:none"
       d="m 74.506467,837.6291 c 2.07565,0.90251 3.33216,1.16711 7.34318,0.90029"
       id="path3790"
       inkscape:connector-curvature="0"
       sodipodi:nodetypes="cc" />
    <path
       style="opacity:0.35;fill:none;stroke:#000000;stroke-width:2.17292666;stroke-linecap:butt;stroke-linejoin:miter;stroke-miterlimit:4;stroke-opacity:1;stroke-dasharray:none;filter:url(#filter3794)"
       d="m 52.0112,864.04985 c 17.294364,-10.95886 81.25105,-12.26912 76.16121,-0.12028"
       id="path3792"
       inkscape:connector-curvature="0"
       sodipodi:nodetypes="cc" />
    <path
       style="fill:#ffffff;fill-opacity:1;stroke:#000000;stroke-width:2.17292666;stroke-linecap:butt;stroke-linejoin:round;stroke-miterlimit:4;stroke-opacity:1;stroke-dasharray:none"
       d="m 80.686487,719.11435 c -10.0027,0.26742 -21.83035,2.19384 -27.50787,4.63435 -4.84217,2.08142 -5.27217,4.94019 4.76753,7.48794 -10.84683,0.0504 -29.40819,-0.34056 -32.52412,-0.42121 2.23971,-1.53791 12.70835,-8.28693 18.87987,-11.81017 z"
       id="path3836"
       inkscape:connector-curvature="0"
       sodipodi:nodetypes="cscccc" />
    <path
       style="fill:#ffffff;fill-opacity:1;stroke:#000000;stroke-width:2.17292666;stroke-linecap:butt;stroke-linejoin:miter;stroke-miterlimit:4;stroke-opacity:1;stroke-dasharray:none"
       d="m 51.136977,727.38387 c 5.76044,21.69357 11.01434,43.97811 22.68184,58.78011 12.236627,5.9931 22.532827,3.17201 26.557523,1.52672 14.00987,-19.23087 17.58095,-39.62161 22.84532,-59.82421 -10.81584,8.74838 -56.100323,9.84274 -72.084683,-0.48262 z"
       id="path3770"
       inkscape:connector-curvature="0"
       sodipodi:nodetypes="ccccc" />
    <path
       style="fill:#ffffff;fill-opacity:1;stroke:#000000;stroke-width:2.17292666;stroke-linecap:butt;stroke-linejoin:miter;stroke-miterlimit:4;stroke-opacity:1;stroke-dasharray:none"
       d="m 25.438397,886.77084 16.44263,-0.079 c 0.038,-3.89434 0.0572,-6.8573 0.028,-11.73926 -0.10425,-17.40065 4.92918,-34.86906 9.49484,-51.56329 4.58252,-16.25202 12.74801,-30.13116 19.30005,-38.55155 -5.89385,-17.8194 -9.13614,-37.25571 -12.65432,-53.80034 -10.96035,-0.0191 -21.92069,-0.0382 -32.88104,-0.0572 0.51566,46.50552 0.26989,105.24326 0.26989,155.79064 z"
       id="path3838"
       inkscape:connector-curvature="0"
       sodipodi:nodetypes="ccsccccc" />
    <path
       style="fill:none;stroke:#000000;stroke-width:2.17292666;stroke-linecap:butt;stroke-linejoin:miter;stroke-miterlimit:4;stroke-opacity:1;stroke-dasharray:none"
       d="m 41.767347,886.65396 0,-11.80859 83.610323,0 0.14618,11.80859 z"
       id="path3844"
       inkscape:connector-curvature="0"
       sodipodi:nodetypes="ccccc" />
    <path
       style="fill:none;stroke:#000000;stroke-width:2.17292666;stroke-linecap:butt;stroke-linejoin:miter;stroke-miterlimit:4;stroke-opacity:1;stroke-dasharray:none"
       d="m 125.63402,886.58 11.0721,-22.98799 0.0395,-10.83835"
       id="path3854"
       inkscape:connector-curvature="0"
       sodipodi:nodetypes="ccc" />
    <text
       xml:space="preserve"
       style="font-size:150.16125488px;font-style:normal;font-weight:normal;line-height:125%;letter-spacing:0px;word-spacing:0px;fill:#000000;fill-opacity:1;stroke:none;font-family:Sans"
       x="441.12625"
       y="869.0592"
       id="text3864"
       sodipodi:linespacing="125%"><tspan
         sodipodi:role="line"
         id="tspan3866"
         x="441.12625"
         y="869.0592">?</tspan></text>
    <g
       transform="matrix(0.22479253,0.22479252,-0.22479252,0.22479253,405.49889,810.08385)"
       id="configuration">
      <g
         id="g4007"
         transform="matrix(0,1,-1,0,172.91991,0.1451167)">
        <use
           id="use4013"
           class="aluminium4"
           xlink:href="#outline1"
           x="0"
           y="0"
           width="744.09448"
           height="1052.3622"
           transform="translate(-32.526919,32.526919)" />
      </g>
      <g
         transform="matrix(0,1,-1,0,131.42269,-39.608034)"
         id="g4025">
        <use
           transform="translate(-32.526919,32.526919)"
           height="1052.3622"
           width="744.09448"
           y="0"
           x="0"
           xlink:href="#outline1"
           class="aluminium4"
           id="use4027" />
      </g>
      <g
         id="g4050"
         transform="matrix(0,-1,1,0,-96.2041,47.991073)">
        <use
           id="use4052"
           class="aluminium4"
           xlink:href="#outline1"
           x="0"
           y="0"
           width="744.09448"
           height="1052.3622"
           transform="translate(-32.526919,32.526919)" />
      </g>
      <g
         transform="matrix(0,-1,1,0,-56.167186,88.027996)"
         id="g4054">
        <use
           transform="translate(-32.526919,32.526919)"
           height="1052.3622"
           width="744.09448"
           y="0"
           x="0"
           xlink:href="#outline1"
           class="aluminium4"
           id="use4056" />
      </g>
    </g>
    <path
       style="fill:#000000;fill-opacity:1;stroke:#000000;stroke-width:0.05740094;stroke-linecap:butt;stroke-linejoin:miter;stroke-miterlimit:4;stroke-opacity:1;stroke-dasharray:none"
       d="m 167.23518,817.97435 21.93891,0.39868 1.44904,0.79575 1.5718,0.0844 0.0695,0.66553 1.56021,0.0619 0.0573,0.38551 26.98744,0.46217 0.87399,-0.56654 3.68676,0.36832 0.007,1.92609 -3.53742,0.50028 -0.89205,-0.52506 -27.18164,-0.33625 -0.008,0.58597 -1.47708,0.10119 -0.0425,0.72027 -1.47703,0.12698 -1.42248,0.78425 c -6.60687,-0.21917 -20.10154,0.35529 -22.45728,-0.0285 -1.86288,-0.93691 -1.95463,-5.02258 0.29364,-6.51092 z"
       id="path3023"
       inkscape:connector-curvature="0"
       sodipodi:nodetypes="cccccccccccccccccccccc" />
    <path
       sodipodi:nodetypes="cccccccccccccccccccccc"
       inkscape:connector-curvature="0"
       id="path4073"
       d="m 192.16811,849.55405 0.39868,-21.93891 0.79575,-1.44904 0.0844,-1.5718 0.66553,-0.0695 0.0619,-1.56021 0.38551,-0.0573 0.46217,-26.98744 -0.56654,-0.87399 0.36832,-3.68676 1.92609,-0.007 0.50028,3.53742 -0.52506,0.89205 -0.33625,27.18164 0.58597,0.008 0.10119,1.47708 0.72027,0.0425 0.12698,1.47703 0.78425,1.42248 c -0.21917,6.60687 0.35529,20.10154 -0.0285,22.45728 -0.93691,1.86288 -5.02258,1.95463 -6.51092,-0.29364 z"
       style="fill:#000000;fill-opacity:1;stroke:#000000;stroke-width:0.05740094;stroke-linecap:butt;stroke-linejoin:miter;stroke-miterlimit:4;stroke-opacity:1;stroke-dasharray:none" />
    <text
       xml:space="preserve"
       style="font-size:26.79609489px;font-style:normal;font-weight:normal;line-height:125%;letter-spacing:0px;word-spacing:0px;fill:#000000;fill-opacity:1;stroke:none;font-family:Sans"
       x="55.180161"
       y="946.24207"
       id="text4083"
       sodipodi:linespacing="125%"><tspan
         sodipodi:role="line"
         id="tspan4085"
         x="55.180161"
         y="946.24207">Schade, aber toll.</tspan></text>
    <text
       xml:space="preserve"
       style="font-size:26.79609489px;font-style:normal;font-weight:normal;line-height:125%;letter-spacing:0px;word-spacing:0px;fill:#000000;fill-opacity:1;stroke:none;font-family:Sans"
       x="55.213291"
       y="979.65033"
       id="text4083-5"
       sodipodi:linespacing="125%"><tspan
         sodipodi:role="line"
         id="tspan4085-6"
         x="55.213291"
         y="979.65033">Ein wunderbares Projekt.</tspan></text>
    <rect
       style="fill:none;stroke:#000000;stroke-width:1.37408197;stroke-opacity:1"
       id="rect4081-3-0"
       width="19.83252"
       height="19.83252"
       x="29.086744"
       y="992.10632"
       rx="2.0411744"
       ry="3.4019654" />
    <text
       xml:space="preserve"
       style="font-size:26.79609489px;font-style:normal;font-weight:normal;line-height:125%;letter-spacing:0px;word-spacing:0px;fill:#000000;fill-opacity:1;stroke:none;font-family:Sans"
       x="55.213291"
       y="1011.8499"
       id="text4083-5-5"
       sodipodi:linespacing="125%"><tspan
         sodipodi:role="line"
         id="tspan4085-6-8"
         x="55.213291"
         y="1011.8499">Unvollständig! <tspan
   style="font-size:11px"
   id="tspan4137">(... oder ist auf dem Toaster schon BSD drauf?)</tspan></tspan></text>
    <rect
       ry="3.4019654"
       rx="2.0411744"
       y="960.46808"
       x="29.086744"
       height="19.83252"
       width="19.83252"
       id="rect4058"
       style="fill:none;stroke:#000000;stroke-width:1.37408197;stroke-opacity:1" />
    <rect
       style="fill:none;stroke:#000000;stroke-width:1.37408197;stroke-opacity:1"
       id="rect4060"
       width="19.83252"
       height="19.83252"
       x="29.086744"
       y="926.9588"
       rx="2.0411744"
       ry="3.4019654" />
  </g>
</svg>
