<?xml version="1.0" encoding="UTF-8" standalone="no"?>
<!-- Created with Inkscape (http://www.inkscape.org/) -->

<svg
   xmlns:dc="http://purl.org/dc/elements/1.1/"
   xmlns:cc="http://creativecommons.org/ns#"
   xmlns:rdf="http://www.w3.org/1999/02/22-rdf-syntax-ns#"
   xmlns:svg="http://www.w3.org/2000/svg"
   xmlns="http://www.w3.org/2000/svg"
   xmlns:sodipodi="http://sodipodi.sourceforge.net/DTD/sodipodi-0.dtd"
   xmlns:inkscape="http://www.inkscape.org/namespaces/inkscape"
   width="524.40942"
   height="372.04724"
   id="svg2"
   version="1.1"
   inkscape:version="0.48.3.1 r9886"
   sodipodi:docname="netz39-flyer-A6_front_club-mate.svg">
  <defs
     id="defs4">
    <filter
       inkscape:collect="always"
       id="filter8679">
      <feGaussianBlur
         inkscape:collect="always"
         stdDeviation="0.68"
         id="feGaussianBlur8681" />
    </filter>
  </defs>
  <sodipodi:namedview
     id="base"
     pagecolor="#ffffff"
     bordercolor="#666666"
     borderopacity="1.0"
     inkscape:pageopacity="0.0"
     inkscape:pageshadow="2"
     inkscape:zoom="1.1488256"
     inkscape:cx="342.65766"
     inkscape:cy="104.1079"
     inkscape:document-units="mm"
     inkscape:current-layer="layer1"
     showgrid="false"
     units="mm"
     inkscape:window-width="1272"
     inkscape:window-height="960"
     inkscape:window-x="1798"
     inkscape:window-y="10"
     inkscape:window-maximized="0" />
  <metadata
     id="metadata7">
    <rdf:RDF>
      <cc:Work
         rdf:about="">
        <dc:format>image/svg+xml</dc:format>
        <dc:type
           rdf:resource="http://purl.org/dc/dcmitype/StillImage" />
        <dc:title />
      </cc:Work>
    </rdf:RDF>
  </metadata>
  <g
     inkscape:label="Rahmen"
     inkscape:groupmode="layer"
     id="layer1"
     transform="translate(0,-680.31492)"
     style="display:inline">
    <rect
       style="fill:#f4d900;fill-opacity:1;fill-rule:nonzero;stroke:none"
       id="rect3775"
       width="524.40942"
       height="372.04724"
       x="0"
       y="680.31494" />
    <rect
       style="fill:#f4e1c6;fill-opacity:1;fill-rule:nonzero;stroke:#ff0000;stroke-width:5;stroke-linecap:butt;stroke-linejoin:miter;stroke-miterlimit:4;stroke-opacity:1;stroke-dasharray:10, 5;stroke-dashoffset:0"
       id="rect3773"
       width="498.60474"
       height="344.92813"
       x="12.902344"
       y="693.87445" />
  </g>
  <g
     inkscape:groupmode="layer"
     id="layer2"
     inkscape:label="Schrift">
    <path
       style="font-size:12px;font-style:normal;font-variant:normal;font-weight:normal;font-stretch:normal;text-align:start;line-height:150%;letter-spacing:0px;word-spacing:0px;writing-mode:lr-tb;text-anchor:start;fill:#000000;fill-opacity:1;stroke:none;stroke-width:1.25000000000000000;stroke-miterlimit:4;stroke-opacity:1;stroke-dasharray:none;font-family:DejaVu Sans;-inkscape-font-specification:DejaVu Sans;opacity:0.80000000000000004;filter:url(#filter8679)"
       d="M 126.0625 68 L 126.0625 72 L 142.0625 72 L 142.0625 68 L 126.0625 68 z M 142.0625 72 L 142.0625 76 L 142.0625 80 L 146.0625 80 L 146.0625 76 L 146.0625 72 L 142.0625 72 z M 126.0625 72 L 122.0625 72 L 122.0625 76 L 122.0625 80 L 122.0625 84 L 122.0625 88 L 122.0625 92 L 122.0625 96 L 122.0625 100 L 122.0625 104 L 126.0625 104 L 126.0625 100 L 126.0625 96 L 126.0625 92 L 126.0625 88 L 126.0625 84 L 126.0625 80 L 126.0625 76 L 126.0625 72 z M 126.0625 104 L 126.0625 108 L 142.0625 108 L 142.0625 104 L 126.0625 104 z M 142.0625 104 L 146.0625 104 L 146.0625 100 L 146.0625 96 L 142.0625 96 L 142.0625 100 L 142.0625 104 z M 154.0625 68 L 154.0625 72 L 154.0625 76 L 154.0625 80 L 154.0625 84 L 154.0625 88 L 154.0625 92 L 154.0625 96 L 154.0625 100 L 154.0625 104 L 154.0625 108 L 178.0625 108 L 178.0625 104 L 158.0625 104 L 158.0625 100 L 158.0625 96 L 158.0625 92 L 158.0625 88 L 158.0625 84 L 158.0625 80 L 158.0625 76 L 158.0625 72 L 158.0625 68 L 154.0625 68 z M 186.0625 68 L 186.0625 72 L 186.0625 76 L 186.0625 80 L 186.0625 84 L 186.0625 88 L 186.0625 92 L 186.0625 96 L 186.0625 100 L 186.0625 104 L 190.0625 104 L 190.0625 100 L 190.0625 96 L 190.0625 92 L 190.0625 88 L 190.0625 84 L 190.0625 80 L 190.0625 76 L 190.0625 72 L 190.0625 68 L 186.0625 68 z M 190.0625 104 L 190.0625 108 L 206.0625 108 L 206.0625 104 L 190.0625 104 z M 206.0625 104 L 210.0625 104 L 210.0625 100 L 210.0625 96 L 210.0625 92 L 210.0625 88 L 210.0625 84 L 210.0625 80 L 210.0625 76 L 210.0625 72 L 210.0625 68 L 206.0625 68 L 206.0625 72 L 206.0625 76 L 206.0625 80 L 206.0625 84 L 206.0625 88 L 206.0625 92 L 206.0625 96 L 206.0625 100 L 206.0625 104 z M 218.0625 68 L 218.0625 72 L 218.0625 76 L 218.0625 80 L 218.0625 84 L 218.0625 88 L 218.0625 92 L 218.0625 96 L 218.0625 100 L 218.0625 104 L 218.0625 108 L 238.0625 108 L 238.0625 104 L 222.0625 104 L 222.0625 100 L 222.0625 96 L 222.0625 92 L 222.0625 88 L 238.0625 88 L 238.0625 84 L 222.0625 84 L 222.0625 80 L 222.0625 76 L 222.0625 72 L 238.0625 72 L 238.0625 68 L 218.0625 68 z M 238.0625 72 L 238.0625 76 L 238.0625 80 L 238.0625 84 L 242.0625 84 L 242.0625 80 L 242.0625 76 L 242.0625 72 L 238.0625 72 z M 238.0625 88 L 238.0625 92 L 238.0625 96 L 238.0625 100 L 238.0625 104 L 242.0625 104 L 242.0625 100 L 242.0625 96 L 242.0625 92 L 242.0625 88 L 238.0625 88 z M 282.0625 68 L 282.0625 72 L 282.0625 76 L 282.0625 80 L 282.0625 84 L 282.0625 88 L 282.0625 92 L 282.0625 96 L 282.0625 100 L 282.0625 104 L 282.0625 108 L 286.0625 108 L 286.0625 104 L 286.0625 100 L 286.0625 96 L 286.0625 92 L 286.0625 88 L 286.0625 84 L 290.0625 84 L 290.0625 80 L 290.0625 76 L 286.0625 76 L 286.0625 72 L 286.0625 68 L 282.0625 68 z M 290.0625 84 L 290.0625 88 L 290.0625 92 L 298.0625 92 L 298.0625 88 L 298.0625 84 L 290.0625 84 z M 298.0625 84 L 302.0625 84 L 302.0625 88 L 302.0625 92 L 302.0625 96 L 302.0625 100 L 302.0625 104 L 302.0625 108 L 306.0625 108 L 306.0625 104 L 306.0625 100 L 306.0625 96 L 306.0625 92 L 306.0625 88 L 306.0625 84 L 306.0625 80 L 306.0625 76 L 306.0625 72 L 306.0625 68 L 302.0625 68 L 302.0625 72 L 302.0625 76 L 298.0625 76 L 298.0625 80 L 298.0625 84 z M 322.0625 68 L 322.0625 72 L 330.0625 72 L 330.0625 68 L 322.0625 68 z M 330.0625 72 L 330.0625 76 L 330.0625 80 L 334.0625 80 L 334.0625 76 L 334.0625 72 L 330.0625 72 z M 334.0625 80 L 334.0625 84 L 334.0625 88 L 318.0625 88 L 318.0625 84 L 318.0625 80 L 314.0625 80 L 314.0625 84 L 314.0625 88 L 314.0625 92 L 314.0625 96 L 314.0625 100 L 314.0625 104 L 314.0625 108 L 318.0625 108 L 318.0625 104 L 318.0625 100 L 318.0625 96 L 318.0625 92 L 334.0625 92 L 334.0625 96 L 334.0625 100 L 334.0625 104 L 334.0625 108 L 338.0625 108 L 338.0625 104 L 338.0625 100 L 338.0625 96 L 338.0625 92 L 338.0625 88 L 338.0625 84 L 338.0625 80 L 334.0625 80 z M 318.0625 80 L 322.0625 80 L 322.0625 76 L 322.0625 72 L 318.0625 72 L 318.0625 76 L 318.0625 80 z M 346.0625 68 L 346.0625 72 L 358.0625 72 L 358.0625 76 L 358.0625 80 L 358.0625 84 L 358.0625 88 L 358.0625 92 L 358.0625 96 L 358.0625 100 L 358.0625 104 L 358.0625 108 L 362.0625 108 L 362.0625 104 L 362.0625 100 L 362.0625 96 L 362.0625 92 L 362.0625 88 L 362.0625 84 L 362.0625 80 L 362.0625 76 L 362.0625 72 L 374.0625 72 L 374.0625 68 L 346.0625 68 z M 378.0625 68 L 378.0625 72 L 378.0625 76 L 378.0625 80 L 378.0625 84 L 378.0625 88 L 378.0625 92 L 378.0625 96 L 378.0625 100 L 378.0625 104 L 378.0625 108 L 402.0625 108 L 402.0625 104 L 382.0625 104 L 382.0625 100 L 382.0625 96 L 382.0625 92 L 382.0625 88 L 398.0625 88 L 398.0625 84 L 382.0625 84 L 382.0625 80 L 382.0625 76 L 382.0625 72 L 402.0625 72 L 402.0625 68 L 378.0625 68 z M 250.0625 88 L 250.0625 92 L 274.0625 92 L 274.0625 88 L 250.0625 88 z M 138.0625 160 L 138.0625 164 L 138.0625 168 L 138.0625 172 L 138.0625 176 L 138.0625 180 L 138.0625 184 L 138.0625 188 L 138.0625 192 L 138.0625 196 L 138.0625 200 L 138.0625 204 L 142.0625 204 L 142.0625 200 L 142.0625 196 L 142.0625 192 L 142.0625 188 L 142.0625 184 L 142.0625 180 L 146.0625 180 L 146.0625 176 L 142.0625 176 L 142.0625 172 L 142.0625 168 L 142.0625 164 L 142.0625 160 L 138.0625 160 z M 146.0625 176 L 158.0625 176 L 158.0625 172 L 146.0625 172 L 146.0625 176 z M 158.0625 176 L 158.0625 180 L 158.0625 184 L 158.0625 188 L 158.0625 192 L 158.0625 196 L 158.0625 200 L 158.0625 204 L 162.0625 204 L 162.0625 200 L 162.0625 196 L 162.0625 192 L 162.0625 188 L 162.0625 184 L 162.0625 180 L 162.0625 176 L 158.0625 176 z M 458.0625 160 L 458.0625 164 L 458.0625 168 L 458.0625 172 L 458.0625 176 L 458.0625 180 L 458.0625 184 L 458.0625 188 L 458.0625 192 L 458.0625 196 L 458.0625 200 L 458.0625 204 L 462.0625 204 L 462.0625 200 L 462.0625 196 L 462.0625 192 L 462.0625 188 L 462.0625 184 L 462.0625 180 L 466.0625 180 L 466.0625 176 L 462.0625 176 L 462.0625 172 L 462.0625 168 L 462.0625 164 L 462.0625 160 L 458.0625 160 z M 466.0625 176 L 478.0625 176 L 478.0625 172 L 466.0625 172 L 466.0625 176 z M 478.0625 176 L 478.0625 180 L 478.0625 184 L 478.0625 188 L 478.0625 192 L 478.0625 196 L 478.0625 200 L 478.0625 204 L 482.0625 204 L 482.0625 200 L 482.0625 196 L 482.0625 192 L 482.0625 188 L 482.0625 184 L 482.0625 180 L 482.0625 176 L 478.0625 176 z M 78.0625 164 L 78.0625 168 L 94.0625 168 L 94.0625 164 L 78.0625 164 z M 94.0625 168 L 94.0625 172 L 94.0625 176 L 98.0625 176 L 98.0625 172 L 98.0625 168 L 94.0625 168 z M 78.0625 168 L 74.0625 168 L 74.0625 172 L 74.0625 176 L 74.0625 180 L 78.0625 180 L 78.0625 176 L 78.0625 172 L 78.0625 168 z M 78.0625 180 L 78.0625 184 L 86.0625 184 L 86.0625 180 L 78.0625 180 z M 86.0625 184 L 86.0625 188 L 94.0625 188 L 94.0625 184 L 86.0625 184 z M 94.0625 188 L 94.0625 192 L 94.0625 196 L 94.0625 200 L 98.0625 200 L 98.0625 196 L 98.0625 192 L 98.0625 188 L 94.0625 188 z M 94.0625 200 L 78.0625 200 L 78.0625 204 L 94.0625 204 L 94.0625 200 z M 78.0625 200 L 78.0625 196 L 78.0625 192 L 74.0625 192 L 74.0625 196 L 74.0625 200 L 78.0625 200 z M 266.0625 164 L 266.0625 168 L 266.0625 172 L 266.0625 176 L 266.0625 180 L 266.0625 184 L 266.0625 188 L 266.0625 192 L 266.0625 196 L 266.0625 200 L 266.0625 204 L 270.0625 204 L 270.0625 200 L 270.0625 196 L 270.0625 192 L 270.0625 188 L 274.0625 188 L 274.0625 184 L 270.0625 184 L 270.0625 180 L 270.0625 176 L 270.0625 172 L 270.0625 168 L 270.0625 164 L 266.0625 164 z M 274.0625 184 L 278.0625 184 L 278.0625 180 L 274.0625 180 L 274.0625 184 z M 278.0625 180 L 282.0625 180 L 282.0625 176 L 278.0625 176 L 278.0625 180 z M 282.0625 176 L 286.0625 176 L 286.0625 172 L 282.0625 172 L 282.0625 176 z M 274.0625 188 L 274.0625 192 L 278.0625 192 L 278.0625 188 L 274.0625 188 z M 278.0625 192 L 278.0625 196 L 282.0625 196 L 282.0625 192 L 278.0625 192 z M 282.0625 196 L 282.0625 200 L 286.0625 200 L 286.0625 196 L 282.0625 196 z M 286.0625 200 L 286.0625 204 L 290.0625 204 L 290.0625 200 L 286.0625 200 z M 306.0625 164 L 306.0625 168 L 306.0625 172 L 298.0625 172 L 298.0625 176 L 306.0625 176 L 306.0625 180 L 306.0625 184 L 306.0625 188 L 306.0625 192 L 306.0625 196 L 306.0625 200 L 310.0625 200 L 310.0625 196 L 310.0625 192 L 310.0625 188 L 310.0625 184 L 310.0625 180 L 310.0625 176 L 318.0625 176 L 318.0625 172 L 310.0625 172 L 310.0625 168 L 310.0625 164 L 306.0625 164 z M 310.0625 200 L 310.0625 204 L 318.0625 204 L 318.0625 200 L 310.0625 200 z M 362.0625 164 L 362.0625 168 L 362.0625 172 L 362.0625 176 L 362.0625 180 L 362.0625 184 L 362.0625 188 L 362.0625 192 L 362.0625 196 L 362.0625 200 L 362.0625 204 L 386.0625 204 L 386.0625 200 L 366.0625 200 L 366.0625 196 L 366.0625 192 L 366.0625 188 L 366.0625 184 L 382.0625 184 L 382.0625 180 L 366.0625 180 L 366.0625 176 L 366.0625 172 L 366.0625 168 L 386.0625 168 L 386.0625 164 L 362.0625 164 z M 42.0625 168 L 42.0625 172 L 42.0625 176 L 46.0625 176 L 46.0625 172 L 46.0625 168 L 42.0625 168 z M 46.0625 176 L 46.0625 180 L 46.0625 184 L 50.0625 184 L 50.0625 180 L 50.0625 176 L 46.0625 176 z M 50.0625 184 L 50.0625 188 L 54.0625 188 L 54.0625 184 L 50.0625 184 z M 50.0625 188 L 46.0625 188 L 46.0625 192 L 46.0625 196 L 50.0625 196 L 50.0625 192 L 50.0625 188 z M 46.0625 196 L 42.0625 196 L 42.0625 200 L 42.0625 204 L 46.0625 204 L 46.0625 200 L 46.0625 196 z M 54.0625 168 L 54.0625 172 L 54.0625 176 L 58.0625 176 L 58.0625 172 L 58.0625 168 L 54.0625 168 z M 58.0625 176 L 58.0625 180 L 58.0625 184 L 62.0625 184 L 62.0625 180 L 62.0625 176 L 58.0625 176 z M 62.0625 184 L 62.0625 188 L 66.0625 188 L 66.0625 184 L 62.0625 184 z M 62.0625 188 L 58.0625 188 L 58.0625 192 L 58.0625 196 L 62.0625 196 L 62.0625 192 L 62.0625 188 z M 58.0625 196 L 54.0625 196 L 54.0625 200 L 54.0625 204 L 58.0625 204 L 58.0625 200 L 58.0625 196 z M 110.0625 172 L 110.0625 176 L 126.0625 176 L 126.0625 172 L 110.0625 172 z M 126.0625 176 L 126.0625 180 L 130.0625 180 L 130.0625 176 L 126.0625 176 z M 110.0625 176 L 106.0625 176 L 106.0625 180 L 106.0625 184 L 106.0625 188 L 106.0625 192 L 106.0625 196 L 106.0625 200 L 110.0625 200 L 110.0625 196 L 110.0625 192 L 110.0625 188 L 110.0625 184 L 110.0625 180 L 110.0625 176 z M 110.0625 200 L 110.0625 204 L 126.0625 204 L 126.0625 200 L 110.0625 200 z M 126.0625 200 L 130.0625 200 L 130.0625 196 L 126.0625 196 L 126.0625 200 z M 170.0625 172 L 170.0625 176 L 170.0625 180 L 170.0625 184 L 170.0625 188 L 170.0625 192 L 170.0625 196 L 170.0625 200 L 170.0625 204 L 174.0625 204 L 174.0625 200 L 174.0625 196 L 174.0625 192 L 174.0625 188 L 174.0625 184 L 174.0625 180 L 174.0625 176 L 182.0625 176 L 182.0625 172 L 170.0625 172 z M 182.0625 176 L 182.0625 180 L 182.0625 184 L 182.0625 188 L 182.0625 192 L 182.0625 196 L 182.0625 200 L 182.0625 204 L 186.0625 204 L 186.0625 200 L 186.0625 196 L 186.0625 192 L 186.0625 188 L 186.0625 184 L 186.0625 180 L 186.0625 176 L 182.0625 176 z M 186.0625 176 L 194.0625 176 L 194.0625 172 L 186.0625 172 L 186.0625 176 z M 194.0625 176 L 194.0625 180 L 194.0625 184 L 194.0625 188 L 194.0625 192 L 194.0625 196 L 194.0625 200 L 194.0625 204 L 198.0625 204 L 198.0625 200 L 198.0625 196 L 198.0625 192 L 198.0625 188 L 198.0625 184 L 198.0625 180 L 198.0625 176 L 194.0625 176 z M 206.0625 172 L 206.0625 176 L 222.0625 176 L 222.0625 172 L 206.0625 172 z M 222.0625 176 L 222.0625 180 L 222.0625 184 L 206.0625 184 L 206.0625 180 L 206.0625 176 L 202.0625 176 L 202.0625 180 L 202.0625 184 L 202.0625 188 L 202.0625 192 L 202.0625 196 L 202.0625 200 L 206.0625 200 L 206.0625 196 L 206.0625 192 L 206.0625 188 L 226.0625 188 L 226.0625 184 L 226.0625 180 L 226.0625 176 L 222.0625 176 z M 206.0625 200 L 206.0625 204 L 222.0625 204 L 222.0625 200 L 206.0625 200 z M 222.0625 200 L 226.0625 200 L 226.0625 196 L 222.0625 196 L 222.0625 200 z M 238.0625 172 L 238.0625 176 L 254.0625 176 L 254.0625 172 L 238.0625 172 z M 254.0625 176 L 254.0625 180 L 258.0625 180 L 258.0625 176 L 254.0625 176 z M 238.0625 176 L 234.0625 176 L 234.0625 180 L 234.0625 184 L 234.0625 188 L 234.0625 192 L 234.0625 196 L 234.0625 200 L 238.0625 200 L 238.0625 196 L 238.0625 192 L 238.0625 188 L 238.0625 184 L 238.0625 180 L 238.0625 176 z M 238.0625 200 L 238.0625 204 L 254.0625 204 L 254.0625 200 L 238.0625 200 z M 254.0625 200 L 258.0625 200 L 258.0625 196 L 254.0625 196 L 254.0625 200 z M 394.0625 172 L 394.0625 176 L 394.0625 180 L 394.0625 184 L 394.0625 188 L 394.0625 192 L 394.0625 196 L 394.0625 200 L 398.0625 200 L 398.0625 196 L 398.0625 192 L 398.0625 188 L 398.0625 184 L 398.0625 180 L 398.0625 176 L 398.0625 172 L 394.0625 172 z M 398.0625 200 L 398.0625 204 L 410.0625 204 L 410.0625 200 L 398.0625 200 z M 410.0625 200 L 414.0625 200 L 414.0625 204 L 418.0625 204 L 418.0625 200 L 418.0625 196 L 418.0625 192 L 418.0625 188 L 418.0625 184 L 418.0625 180 L 418.0625 176 L 418.0625 172 L 414.0625 172 L 414.0625 176 L 414.0625 180 L 414.0625 184 L 414.0625 188 L 414.0625 192 L 414.0625 196 L 410.0625 196 L 410.0625 200 z M 430.0625 172 L 430.0625 176 L 446.0625 176 L 446.0625 172 L 430.0625 172 z M 446.0625 176 L 446.0625 180 L 450.0625 180 L 450.0625 176 L 446.0625 176 z M 430.0625 176 L 426.0625 176 L 426.0625 180 L 426.0625 184 L 426.0625 188 L 426.0625 192 L 426.0625 196 L 426.0625 200 L 430.0625 200 L 430.0625 196 L 430.0625 192 L 430.0625 188 L 430.0625 184 L 430.0625 180 L 430.0625 176 z M 430.0625 200 L 430.0625 204 L 446.0625 204 L 446.0625 200 L 430.0625 200 z M 446.0625 200 L 450.0625 200 L 450.0625 196 L 446.0625 196 L 446.0625 200 z M 126.0625 256 L 126.0625 260 L 126.0625 264 L 126.0625 268 L 126.0625 272 L 122.0625 272 L 122.0625 276 L 126.0625 276 L 126.0625 280 L 126.0625 284 L 126.0625 288 L 126.0625 292 L 122.0625 292 L 122.0625 296 L 126.0625 296 L 126.0625 300 L 130.0625 300 L 130.0625 296 L 130.0625 292 L 130.0625 288 L 130.0625 284 L 130.0625 280 L 130.0625 276 L 130.0625 272 L 130.0625 268 L 130.0625 264 L 130.0625 260 L 130.0625 256 L 126.0625 256 z M 122.0625 296 L 110.0625 296 L 110.0625 300 L 122.0625 300 L 122.0625 296 z M 110.0625 296 L 110.0625 292 L 110.0625 288 L 110.0625 284 L 110.0625 280 L 110.0625 276 L 110.0625 272 L 106.0625 272 L 106.0625 276 L 106.0625 280 L 106.0625 284 L 106.0625 288 L 106.0625 292 L 106.0625 296 L 110.0625 296 z M 110.0625 272 L 122.0625 272 L 122.0625 268 L 110.0625 268 L 110.0625 272 z M 234.0625 260 L 234.0625 264 L 254.0625 264 L 254.0625 268 L 254.0625 272 L 258.0625 272 L 258.0625 268 L 258.0625 264 L 258.0625 260 L 234.0625 260 z M 254.0625 272 L 250.0625 272 L 250.0625 276 L 254.0625 276 L 254.0625 272 z M 250.0625 276 L 246.0625 276 L 246.0625 280 L 250.0625 280 L 250.0625 276 z M 246.0625 280 L 242.0625 280 L 242.0625 284 L 246.0625 284 L 246.0625 280 z M 242.0625 284 L 238.0625 284 L 238.0625 288 L 242.0625 288 L 242.0625 284 z M 238.0625 288 L 234.0625 288 L 234.0625 292 L 234.0625 296 L 234.0625 300 L 258.0625 300 L 258.0625 296 L 238.0625 296 L 238.0625 292 L 238.0625 288 z M 366.0625 260 L 366.0625 264 L 382.0625 264 L 382.0625 260 L 366.0625 260 z M 382.0625 264 L 382.0625 268 L 382.0625 272 L 382.0625 276 L 386.0625 276 L 386.0625 272 L 386.0625 268 L 386.0625 264 L 382.0625 264 z M 382.0625 276 L 378.0625 276 L 378.0625 280 L 382.0625 280 L 382.0625 276 z M 378.0625 280 L 374.0625 280 L 374.0625 284 L 374.0625 288 L 378.0625 288 L 378.0625 284 L 378.0625 280 z M 366.0625 264 L 362.0625 264 L 362.0625 268 L 362.0625 272 L 366.0625 272 L 366.0625 268 L 366.0625 264 z M 350.0625 264 L 350.0625 268 L 350.0625 272 L 354.0625 272 L 354.0625 268 L 354.0625 264 L 350.0625 264 z M 350.0625 272 L 346.0625 272 L 346.0625 276 L 346.0625 280 L 346.0625 284 L 350.0625 284 L 350.0625 280 L 350.0625 276 L 350.0625 272 z M 346.0625 284 L 334.0625 284 L 334.0625 288 L 334.0625 292 L 334.0625 296 L 350.0625 296 L 350.0625 292 L 338.0625 292 L 338.0625 288 L 346.0625 288 L 346.0625 284 z M 350.0625 296 L 350.0625 300 L 350.0625 304 L 354.0625 304 L 354.0625 300 L 354.0625 296 L 350.0625 296 z M 350.0625 304 L 334.0625 304 L 334.0625 308 L 350.0625 308 L 350.0625 304 z M 334.0625 304 L 334.0625 300 L 334.0625 296 L 330.0625 296 L 330.0625 300 L 330.0625 304 L 334.0625 304 z M 334.0625 284 L 334.0625 280 L 334.0625 276 L 334.0625 272 L 330.0625 272 L 330.0625 276 L 330.0625 280 L 330.0625 284 L 334.0625 284 z M 334.0625 272 L 346.0625 272 L 346.0625 268 L 334.0625 268 L 334.0625 272 z M 402.0625 264 L 402.0625 268 L 402.0625 272 L 406.0625 272 L 406.0625 268 L 406.0625 264 L 402.0625 264 z M 402.0625 272 L 398.0625 272 L 398.0625 276 L 398.0625 280 L 402.0625 280 L 402.0625 276 L 402.0625 272 z M 398.0625 280 L 394.0625 280 L 394.0625 284 L 398.0625 284 L 398.0625 280 z M 398.0625 284 L 398.0625 288 L 398.0625 292 L 402.0625 292 L 402.0625 288 L 402.0625 284 L 398.0625 284 z M 402.0625 292 L 402.0625 296 L 402.0625 300 L 406.0625 300 L 406.0625 296 L 406.0625 292 L 402.0625 292 z M 414.0625 264 L 414.0625 268 L 414.0625 272 L 418.0625 272 L 418.0625 268 L 418.0625 264 L 414.0625 264 z M 414.0625 272 L 410.0625 272 L 410.0625 276 L 410.0625 280 L 414.0625 280 L 414.0625 276 L 414.0625 272 z M 410.0625 280 L 406.0625 280 L 406.0625 284 L 410.0625 284 L 410.0625 280 z M 410.0625 284 L 410.0625 288 L 410.0625 292 L 414.0625 292 L 414.0625 288 L 414.0625 284 L 410.0625 284 z M 414.0625 292 L 414.0625 296 L 414.0625 300 L 418.0625 300 L 418.0625 296 L 418.0625 292 L 414.0625 292 z M 142.0625 268 L 142.0625 272 L 158.0625 272 L 158.0625 268 L 142.0625 268 z M 158.0625 272 L 158.0625 276 L 158.0625 280 L 142.0625 280 L 142.0625 284 L 158.0625 284 L 158.0625 288 L 158.0625 292 L 154.0625 292 L 154.0625 296 L 158.0625 296 L 158.0625 300 L 162.0625 300 L 162.0625 296 L 162.0625 292 L 162.0625 288 L 162.0625 284 L 162.0625 280 L 162.0625 276 L 162.0625 272 L 158.0625 272 z M 154.0625 296 L 142.0625 296 L 142.0625 300 L 154.0625 300 L 154.0625 296 z M 142.0625 296 L 142.0625 292 L 142.0625 288 L 142.0625 284 L 138.0625 284 L 138.0625 288 L 138.0625 292 L 138.0625 296 L 142.0625 296 z M 142.0625 272 L 138.0625 272 L 138.0625 276 L 142.0625 276 L 142.0625 272 z M 174.0625 268 L 174.0625 272 L 190.0625 272 L 190.0625 268 L 174.0625 268 z M 190.0625 272 L 190.0625 276 L 194.0625 276 L 194.0625 272 L 190.0625 272 z M 174.0625 272 L 170.0625 272 L 170.0625 276 L 170.0625 280 L 174.0625 280 L 174.0625 276 L 174.0625 272 z M 174.0625 280 L 174.0625 284 L 182.0625 284 L 182.0625 280 L 174.0625 280 z M 182.0625 284 L 182.0625 288 L 190.0625 288 L 190.0625 284 L 182.0625 284 z M 190.0625 288 L 190.0625 292 L 190.0625 296 L 194.0625 296 L 194.0625 292 L 194.0625 288 L 190.0625 288 z M 190.0625 296 L 174.0625 296 L 174.0625 300 L 190.0625 300 L 190.0625 296 z M 174.0625 296 L 174.0625 292 L 170.0625 292 L 170.0625 296 L 174.0625 296 z M 270.0625 268 L 270.0625 272 L 286.0625 272 L 286.0625 268 L 270.0625 268 z M 286.0625 272 L 286.0625 276 L 286.0625 280 L 270.0625 280 L 270.0625 276 L 270.0625 272 L 266.0625 272 L 266.0625 276 L 266.0625 280 L 266.0625 284 L 266.0625 288 L 266.0625 292 L 266.0625 296 L 270.0625 296 L 270.0625 292 L 270.0625 288 L 270.0625 284 L 290.0625 284 L 290.0625 280 L 290.0625 276 L 290.0625 272 L 286.0625 272 z M 270.0625 296 L 270.0625 300 L 286.0625 300 L 286.0625 296 L 270.0625 296 z M 286.0625 296 L 290.0625 296 L 290.0625 292 L 286.0625 292 L 286.0625 296 z M 298.0625 268 L 298.0625 272 L 298.0625 276 L 298.0625 280 L 298.0625 284 L 298.0625 288 L 298.0625 292 L 298.0625 296 L 302.0625 296 L 302.0625 292 L 302.0625 288 L 302.0625 284 L 302.0625 280 L 302.0625 276 L 302.0625 272 L 302.0625 268 L 298.0625 268 z M 302.0625 296 L 302.0625 300 L 314.0625 300 L 314.0625 296 L 302.0625 296 z M 314.0625 296 L 318.0625 296 L 318.0625 300 L 322.0625 300 L 322.0625 296 L 322.0625 292 L 322.0625 288 L 322.0625 284 L 322.0625 280 L 322.0625 276 L 322.0625 272 L 322.0625 268 L 318.0625 268 L 318.0625 272 L 318.0625 276 L 318.0625 280 L 318.0625 284 L 318.0625 288 L 318.0625 292 L 314.0625 292 L 314.0625 296 z M 374.0625 292 L 374.0625 296 L 374.0625 300 L 378.0625 300 L 378.0625 296 L 378.0625 292 L 374.0625 292 z "
       id="text2985-1" />
    <text
       transform="translate(0,-680.31492)"
       xml:space="preserve"
       style="font-size:12px;font-style:normal;font-variant:normal;font-weight:normal;font-stretch:normal;text-align:start;line-height:150%;letter-spacing:0px;word-spacing:0px;writing-mode:lr-tb;text-anchor:start;fill:#ffff00;fill-opacity:1;stroke:#0000ff;stroke-width:1.25000000000000000;stroke-miterlimit:4;stroke-opacity:1;stroke-dasharray:none;font-family:DejaVu Sans;-inkscape-font-specification:DejaVu Sans"
       x="260.20471"
       y="786.33856"
       id="text2985"
       sodipodi:linespacing="150%"><tspan
         sodipodi:role="line"
         id="tspan2997"
         style="font-size:64px;font-style:normal;font-variant:normal;font-weight:normal;font-stretch:normal;text-align:center;line-height:150%;writing-mode:lr-tb;text-anchor:middle;fill:#ffff00;fill-opacity:1;stroke:#0000ff;stroke-width:1.25;stroke-miterlimit:4;stroke-opacity:1;stroke-dasharray:none;font-family:unifont;-inkscape-font-specification:unifont"
         x="260.20471"
         y="786.33856">CLUB-MATE</tspan><tspan
         sodipodi:role="line"
         id="tspan3001"
         style="font-size:64px;font-style:normal;font-variant:normal;font-weight:normal;font-stretch:normal;text-align:center;line-height:150%;writing-mode:lr-tb;text-anchor:middle;fill:#ffff00;fill-opacity:1;stroke:#0000ff;stroke-width:1.25;stroke-miterlimit:4;stroke-opacity:1;stroke-dasharray:none;font-family:unifont;-inkscape-font-specification:unifont"
         x="276.20471"
         y="882.33856">»Schmeckt Euch </tspan><tspan
         sodipodi:role="line"
         style="font-size:64px;font-style:normal;font-variant:normal;font-weight:normal;font-stretch:normal;text-align:center;line-height:150%;writing-mode:lr-tb;text-anchor:middle;fill:#ffff00;fill-opacity:1;stroke:#0000ff;stroke-width:1.25;stroke-miterlimit:4;stroke-opacity:1;stroke-dasharray:none;font-family:unifont;-inkscape-font-specification:unifont"
         x="260.20471"
         y="978.33856"
         id="tspan8608">das Zeug?«</tspan></text>
  </g>
</svg>
