<?xml version="1.0" encoding="UTF-8" standalone="no"?>
<!-- Created with Inkscape (http://www.inkscape.org/) -->

<svg
   xmlns:dc="http://purl.org/dc/elements/1.1/"
   xmlns:cc="http://creativecommons.org/ns#"
   xmlns:rdf="http://www.w3.org/1999/02/22-rdf-syntax-ns#"
   xmlns:svg="http://www.w3.org/2000/svg"
   xmlns="http://www.w3.org/2000/svg"
   xmlns:xlink="http://www.w3.org/1999/xlink"
   xmlns:sodipodi="http://sodipodi.sourceforge.net/DTD/sodipodi-0.dtd"
   xmlns:inkscape="http://www.inkscape.org/namespaces/inkscape"
   width="524.4707"
   height="370.89792"
   id="svg2986"
   version="1.1"
   inkscape:version="0.48.3.1 r9886"
   sodipodi:docname="FlyerRueckseite_20150918.pdf">
  <defs
     id="defs2988">
    <inkscape:perspective
       sodipodi:type="inkscape:persp3d"
       inkscape:vp_x="0 : 526.18109 : 1"
       inkscape:vp_y="0 : 1000 : 0"
       inkscape:vp_z="744.09448 : 526.18109 : 1"
       inkscape:persp3d-origin="372.04724 : 350.78739 : 1"
       id="perspective4103" />
    <clipPath
       clipPathUnits="userSpaceOnUse"
       id="clipPath3650">
      <path
         inkscape:connector-curvature="0"
         id="path3652"
         d="m 0,680.31486 524.40945,0 0,372.04724 -524.40945,0 z"
         style="fill:url(#linearGradient3654);fill-opacity:1;stroke:none" />
    </clipPath>
    <linearGradient
       inkscape:collect="always"
       xlink:href="#linearGradient4005-5"
       id="linearGradient3207"
       gradientUnits="userSpaceOnUse"
       gradientTransform="translate(-15.586561,412.8609)"
       x1="132.84013"
       y1="550.31641"
       x2="302.65936"
       y2="550.31641" />
    <linearGradient
       id="linearGradient4005-5">
      <stop
         id="stop4007-6"
         offset="0"
         style="stop-color:#ffffff;stop-opacity:1;" />
      <stop
         style="stop-color:#ffffff;stop-opacity:0;"
         offset="1"
         id="stop3858-4" />
    </linearGradient>
  </defs>
  <sodipodi:namedview
     id="base"
     pagecolor="#ffffff"
     bordercolor="#666666"
     borderopacity="1.0"
     inkscape:pageopacity="0.0"
     inkscape:pageshadow="2"
     inkscape:zoom="0.98994949"
     inkscape:cx="211.52555"
     inkscape:cy="190.521"
     inkscape:document-units="px"
     inkscape:current-layer="layer2"
     showgrid="false"
     inkscape:window-width="1366"
     inkscape:window-height="721"
     inkscape:window-x="-2"
     inkscape:window-y="1077"
     inkscape:window-maximized="1"
     showguides="true"
     inkscape:guide-bbox="true"
     fit-margin-top="0"
     fit-margin-left="0"
     fit-margin-right="0"
     fit-margin-bottom="0" />
  <metadata
     id="metadata2991">
    <rdf:RDF>
      <cc:Work
         rdf:about="">
        <dc:format>image/svg+xml</dc:format>
        <dc:type
           rdf:resource="http://purl.org/dc/dcmitype/StillImage" />
        <dc:title></dc:title>
      </cc:Work>
    </rdf:RDF>
  </metadata>
  <g
     inkscape:label="Hintergrund"
     inkscape:groupmode="layer"
     id="layer1"
     transform="translate(-4.2548418,-63.313193)" />
  <g
     inkscape:groupmode="layer"
     id="layer2"
     inkscape:label="Text"
     transform="translate(-4.2548418,-63.313193)">
    <rect
       style="opacity:0.86695275;fill:#e3dbdb;fill-opacity:0.74336285;stroke:#000000;stroke-width:0;stroke-miterlimit:4;stroke-opacity:1;stroke-dasharray:none;stroke-dashoffset:0"
       id="rect2994"
       width="523.47144"
       x="5.4688044"
       y="64.201553"
       height="370.13135" />
    <flowRoot
       xml:space="preserve"
       id="flowRoot3765"
       style="font-size:24px;font-style:normal;font-variant:normal;font-weight:normal;font-stretch:normal;text-align:center;line-height:125%;letter-spacing:0px;word-spacing:0px;text-anchor:middle;fill:#1a1a1a;fill-opacity:1;stroke:none;font-family:Delphine;-inkscape-font-specification:Delphine"
       transform="matrix(0.82335824,0,0,0.82335824,-9.5149267,331.73156)"><flowRegion
         id="flowRegion3767"><rect
           id="rect3769"
           width="669.99994"
           height="232.85715"
           x="42.857143"
           y="38.076469"
           style="font-size:24px;fill:#1a1a1a" /></flowRegion><flowPara
         id="flowPara3785"
         style="font-size:20px;font-style:normal;font-variant:normal;font-weight:500;font-stretch:normal;text-align:start;text-anchor:start;fill:#1a1a1a;font-family:unifont;-inkscape-font-specification:unifont Medium">Magdeburgs Nerdspielplatz:</flowPara><flowPara
         id="flowPara3807"
         style="font-style:normal;font-variant:normal;font-weight:500;font-stretch:normal;text-align:start;text-anchor:start;fill:#1a1a1a;font-family:unifont;-inkscape-font-specification:unifont Medium">Glückliche Hacker in artgerechter Neulandhaltung.</flowPara><flowPara
         id="flowPara3805" /><flowPara
         id="flowPara3799" /></flowRoot>    <rect
       style="opacity:0.53648065;fill:#999999;fill-opacity:1;stroke:#000000;stroke-width:0;stroke-miterlimit:4;stroke-opacity:1;stroke-dasharray:none;stroke-dashoffset:0"
       id="rect4472"
       width="260.86188"
       height="105.57919"
       x="251.33727"
       y="249.01512"
       ry="0" />
    <text
       xml:space="preserve"
       style="font-size:8.51116848px;font-style:normal;font-variant:normal;font-weight:500;font-stretch:normal;text-align:center;line-height:125%;letter-spacing:0px;word-spacing:0px;text-anchor:middle;fill:#000000;fill-opacity:1;stroke:none;font-family:unifont;-inkscape-font-specification:unifont Medium"
       x="499.32944"
       y="251.65115"
       id="text4474"
       sodipodi:linespacing="125%"><tspan
         sodipodi:role="line"
         x="499.32944"
         y="251.65115"
         style="font-size:15.32010269px;text-align:end;text-anchor:end"
         id="tspan4478" /><tspan
         sodipodi:role="line"
         x="499.32944"
         y="269.06177"
         style="font-size:13.61786938px;text-align:end;text-anchor:end"
         id="tspan4490">@netz39</tspan><tspan
         sodipodi:role="line"
         x="499.32944"
         y="286.08411"
         style="font-size:13.61786938px;text-align:end;text-anchor:end"
         id="tspan4492">netz39.de</tspan><tspan
         sodipodi:role="line"
         x="499.32944"
         y="303.10645"
         style="font-size:13.61786938px;text-align:end;text-anchor:end"
         id="tspan4482">facebook.com/netz39</tspan><tspan
         sodipodi:role="line"
         x="499.32944"
         y="320.12878"
         style="font-size:13.61786938px;text-align:end;text-anchor:end"
         id="tspan4480">irc #netz39 (Freenode)</tspan><tspan
         sodipodi:role="line"
         x="499.32944"
         y="337.15112"
         style="font-size:13.61786938px;text-align:end;text-anchor:end"
         id="tspan4484">Leibnizstraße 32 // 39104 Magdeburg</tspan><tspan
         sodipodi:role="line"
         x="499.32944"
         y="354.17346"
         style="font-size:15.32010269px;text-align:end;text-anchor:end"
         id="tspan4486" /></text>
    <text
       xml:space="preserve"
       style="font-size:13.61786938px;font-style:normal;font-variant:normal;font-weight:500;font-stretch:normal;text-align:start;line-height:125%;letter-spacing:0px;word-spacing:0px;text-anchor:start;fill:#000000;fill-opacity:1;stroke:none;font-family:unifont;-inkscape-font-specification:unifont Medium"
       x="508.41437"
       y="99.424446"
       id="text4517"
       sodipodi:linespacing="125%"><tspan
         sodipodi:role="line"
         id="tspan4519"
         x="508.41437"
         y="99.424446"
         style="font-size:11.91563511px;text-align:end;text-anchor:end">++ 3D-Druck ++ Open-Source ++ Freifunk ++</tspan><tspan
         sodipodi:role="line"
         x="508.41437"
         y="114.319"
         id="tspan4521"
         style="font-size:11.91563511px;text-align:end;text-anchor:end">++ Keysigning ++ TechTalk ++</tspan><tspan
         sodipodi:role="line"
         x="508.41437"
         y="129.21353"
         id="tspan4523"
         style="font-size:11.91563511px;text-align:end;text-anchor:end">++ Löten ++ PCB-etching ++</tspan><tspan
         sodipodi:role="line"
         x="508.41437"
         y="144.10808"
         style="font-size:11.91563511px;text-align:end;text-anchor:end"
         id="tspan4537">++ Multicopter ++ Holzwerkstatt ++</tspan><tspan
         sodipodi:role="line"
         x="508.41437"
         y="159.00262"
         id="tspan4525"
         style="font-size:11.91563511px;text-align:end;text-anchor:end">++ Nähmaschine ++ Coden ++ SocialSoljanka ++</tspan><tspan
         sodipodi:role="line"
         x="508.41437"
         y="173.89717"
         style="font-size:11.91563511px;text-align:end;text-anchor:end"
         id="tspan4527">++ Raumschiffparkplatz ++ Luftschlossdesign ++</tspan></text>
    <rect
       y="84.313904"
       x="25.677729"
       height="138.55057"
       width="137.69083"
       id="rect4881"
       style="opacity:0.86695275;fill:#b4b0b0;fill-opacity:0.83529621;stroke:#000000;stroke-width:0;stroke-miterlimit:4;stroke-opacity:1;stroke-dasharray:none;stroke-dashoffset:0" />
    <rect
       style="opacity:0.86695275;fill:#ffffff;fill-opacity:1;stroke:#000000;stroke-width:0;stroke-miterlimit:4;stroke-opacity:1;stroke-dasharray:none;stroke-dashoffset:0"
       id="rect4099"
       width="101.29918"
       height="101.37772"
       x="43.873573"
       y="102.90034" />
    <g
       id="g4094"
       transform="matrix(0.30844964,0,0,0.32073667,55.966937,113.49711)">
      <rect
         id="rect4083"
         height="250"
         width="250"
         y="0"
         x="0"
         style="fill:#ffffff;fill-opacity:1" />
      <g
         id="elements">
        <path
           id="path4086"
           d="m 0,0 10,0 0,10 -10,0 z m 10,0 10,0 0,10 -10,0 z m 10,0 10,0 0,10 -10,0 z m 10,0 10,0 0,10 -10,0 z m 10,0 10,0 0,10 -10,0 z m 10,0 10,0 0,10 -10,0 z m 10,0 10,0 0,10 -10,0 z m 30,0 10,0 0,10 -10,0 z m 40,0 10,0 0,10 -10,0 z m 50,0 10,0 0,10 -10,0 z m 10,0 10,0 0,10 -10,0 z m 10,0 10,0 0,10 -10,0 z m 10,0 10,0 0,10 -10,0 z m 10,0 10,0 0,10 -10,0 z m 10,0 10,0 0,10 -10,0 z m 10,0 10,0 0,10 -10,0 z M 0,10 10,10 10,20 0,20 z m 60,0 10,0 0,10 -10,0 z m 20,0 10,0 0,10 -10,0 z m 10,0 10,0 0,10 -10,0 z m 20,0 10,0 0,10 -10,0 z m 10,0 10,0 0,10 -10,0 z m 10,0 10,0 0,10 -10,0 z m 10,0 10,0 0,10 -10,0 z m 10,0 10,0 0,10 -10,0 z m 10,0 10,0 0,10 -10,0 z m 20,0 10,0 0,10 -10,0 z m 60,0 10,0 0,10 -10,0 z M 0,20 10,20 10,30 0,30 z m 20,0 10,0 0,10 -10,0 z m 10,0 10,0 0,10 -10,0 z m 10,0 10,0 0,10 -10,0 z m 20,0 10,0 0,10 -10,0 z m 30,0 10,0 0,10 -10,0 z m 10,0 10,0 0,10 -10,0 z m 10,0 10,0 0,10 -10,0 z m 40,0 10,0 0,10 -10,0 z m 30,0 10,0 0,10 -10,0 z m 20,0 10,0 0,10 -10,0 z m 10,0 10,0 0,10 -10,0 z m 10,0 10,0 0,10 -10,0 z m 20,0 10,0 0,10 -10,0 z M 0,30 10,30 10,40 0,40 z m 20,0 10,0 0,10 -10,0 z m 10,0 10,0 0,10 -10,0 z m 10,0 10,0 0,10 -10,0 z m 20,0 10,0 0,10 -10,0 z m 20,0 10,0 0,10 -10,0 z m 10,0 10,0 0,10 -10,0 z m 20,0 10,0 0,10 -10,0 z m 20,0 10,0 0,10 -10,0 z m 10,0 10,0 0,10 -10,0 z m 20,0 10,0 0,10 -10,0 z m 20,0 10,0 0,10 -10,0 z m 20,0 10,0 0,10 -10,0 z m 10,0 10,0 0,10 -10,0 z m 10,0 10,0 0,10 -10,0 z m 20,0 10,0 0,10 -10,0 z M 0,40 10,40 10,50 0,50 z m 20,0 10,0 0,10 -10,0 z m 10,0 10,0 0,10 -10,0 z m 10,0 10,0 0,10 -10,0 z m 20,0 10,0 0,10 -10,0 z m 40,0 10,0 0,10 -10,0 z m 20,0 10,0 0,10 -10,0 z m 60,0 10,0 0,10 -10,0 z m 20,0 10,0 0,10 -10,0 z m 10,0 10,0 0,10 -10,0 z m 10,0 10,0 0,10 -10,0 z m 20,0 10,0 0,10 -10,0 z M 0,50 10,50 10,60 0,60 z m 60,0 10,0 0,10 -10,0 z m 20,0 10,0 0,10 -10,0 z m 20,0 10,0 0,10 -10,0 z m 40,0 10,0 0,10 -10,0 z m 10,0 10,0 0,10 -10,0 z m 10,0 10,0 0,10 -10,0 z m 20,0 10,0 0,10 -10,0 z m 60,0 10,0 0,10 -10,0 z M 0,60 10,60 10,70 0,70 z m 10,0 10,0 0,10 -10,0 z m 10,0 10,0 0,10 -10,0 z m 10,0 10,0 0,10 -10,0 z m 10,0 10,0 0,10 -10,0 z m 10,0 10,0 0,10 -10,0 z m 10,0 10,0 0,10 -10,0 z m 20,0 10,0 0,10 -10,0 z m 20,0 10,0 0,10 -10,0 z m 20,0 10,0 0,10 -10,0 z m 20,0 10,0 0,10 -10,0 z m 20,0 10,0 0,10 -10,0 z m 20,0 10,0 0,10 -10,0 z m 10,0 10,0 0,10 -10,0 z m 10,0 10,0 0,10 -10,0 z m 10,0 10,0 0,10 -10,0 z m 10,0 10,0 0,10 -10,0 z m 10,0 10,0 0,10 -10,0 z m 10,0 10,0 0,10 -10,0 z m -120,10 10,0 0,10 -10,0 z M 0,80 10,80 10,90 0,90 z m 10,0 10,0 0,10 -10,0 z m 10,0 10,0 0,10 -10,0 z m 10,0 10,0 0,10 -10,0 z m 10,0 10,0 0,10 -10,0 z m 20,0 10,0 0,10 -10,0 z m 10,0 10,0 0,10 -10,0 z m 10,0 10,0 0,10 -10,0 z m 10,0 10,0 0,10 -10,0 z m 10,0 10,0 0,10 -10,0 z m 20,0 10,0 0,10 -10,0 z m 10,0 10,0 0,10 -10,0 z m 10,0 10,0 0,10 -10,0 z m 10,0 10,0 0,10 -10,0 z m 10,0 10,0 0,10 -10,0 z m 10,0 10,0 0,10 -10,0 z m 20,0 10,0 0,10 -10,0 z m 20,0 10,0 0,10 -10,0 z m 20,0 10,0 0,10 -10,0 z M 0,90 l 10,0 0,10 -10,0 z m 40,0 10,0 0,10 -10,0 z m 40,0 10,0 0,10 -10,0 z m 10,0 10,0 0,10 -10,0 z m 80,0 10,0 0,10 -10,0 z m 20,0 10,0 0,10 -10,0 z m 40,0 10,0 0,10 -10,0 z m -220,10 10,0 0,10 -10,0 z m 10,0 10,0 0,10 -10,0 z m 40,0 10,0 0,10 -10,0 z m 10,0 10,0 0,10 -10,0 z m 10,0 10,0 0,10 -10,0 z m 10,0 10,0 0,10 -10,0 z m 20,0 10,0 0,10 -10,0 z m 10,0 10,0 0,10 -10,0 z m 20,0 10,0 0,10 -10,0 z m 10,0 10,0 0,10 -10,0 z m 20,0 10,0 0,10 -10,0 z m 10,0 10,0 0,10 -10,0 z m 10,0 10,0 0,10 -10,0 z m 10,0 10,0 0,10 -10,0 z m 10,0 10,0 0,10 -10,0 z m 20,0 10,0 0,10 -10,0 z m 10,0 10,0 0,10 -10,0 z m -220,10 10,0 0,10 -10,0 z m 10,0 10,0 0,10 -10,0 z m 10,0 10,0 0,10 -10,0 z m 50,0 10,0 0,10 -10,0 z m 10,0 10,0 0,10 -10,0 z m 10,0 10,0 0,10 -10,0 z m 30,0 10,0 0,10 -10,0 z m 30,0 10,0 0,10 -10,0 z m 20,0 10,0 0,10 -10,0 z m 50,0 10,0 0,10 -10,0 z m -240,10 10,0 0,10 -10,0 z m 10,0 10,0 0,10 -10,0 z m 20,0 10,0 0,10 -10,0 z m 10,0 10,0 0,10 -10,0 z m 10,0 10,0 0,10 -10,0 z m 10,0 10,0 0,10 -10,0 z m 10,0 10,0 0,10 -10,0 z m 10,0 10,0 0,10 -10,0 z m 10,0 10,0 0,10 -10,0 z m 20,0 10,0 0,10 -10,0 z m 50,0 10,0 0,10 -10,0 z m 20,0 10,0 0,10 -10,0 z m 10,0 10,0 0,10 -10,0 z m 10,0 10,0 0,10 -10,0 z m 20,0 10,0 0,10 -10,0 z m 10,0 10,0 0,10 -10,0 z m 10,0 10,0 0,10 -10,0 z m -240,10 10,0 0,10 -10,0 z m 20,0 10,0 0,10 -10,0 z m 50,0 10,0 0,10 -10,0 z m 30,0 10,0 0,10 -10,0 z m 20,0 10,0 0,10 -10,0 z m 10,0 10,0 0,10 -10,0 z m 30,0 10,0 0,10 -10,0 z m 30,0 10,0 0,10 -10,0 z m 20,0 10,0 0,10 -10,0 z m 20,0 10,0 0,10 -10,0 z m -230,10 10,0 0,10 -10,0 z m 60,0 10,0 0,10 -10,0 z m 30,0 10,0 0,10 -10,0 z m 40,0 10,0 0,10 -10,0 z m 10,0 10,0 0,10 -10,0 z m 10,0 10,0 0,10 -10,0 z m 20,0 10,0 0,10 -10,0 z m 20,0 10,0 0,10 -10,0 z m 10,0 10,0 0,10 -10,0 z m 10,0 10,0 0,10 -10,0 z m 20,0 10,0 0,10 -10,0 z m 10,0 10,0 0,10 -10,0 z m -240,10 10,0 0,10 -10,0 z m 20,0 10,0 0,10 -10,0 z m 30,0 10,0 0,10 -10,0 z m 20,0 10,0 0,10 -10,0 z m 10,0 10,0 0,10 -10,0 z m 10,0 10,0 0,10 -10,0 z m 30,0 10,0 0,10 -10,0 z m 10,0 10,0 0,10 -10,0 z m 20,0 10,0 0,10 -10,0 z m 10,0 10,0 0,10 -10,0 z m 30,0 10,0 0,10 -10,0 z m 20,0 10,0 0,10 -10,0 z m 30,0 10,0 0,10 -10,0 z m -240,10 10,0 0,10 -10,0 z m 20,0 10,0 0,10 -10,0 z m 10,0 10,0 0,10 -10,0 z m 10,0 10,0 0,10 -10,0 z m 10,0 10,0 0,10 -10,0 z m 10,0 10,0 0,10 -10,0 z m 30,0 10,0 0,10 -10,0 z m 10,0 10,0 0,10 -10,0 z m 20,0 10,0 0,10 -10,0 z m 20,0 10,0 0,10 -10,0 z m 10,0 10,0 0,10 -10,0 z m 10,0 10,0 0,10 -10,0 z m 10,0 10,0 0,10 -10,0 z m 10,0 10,0 0,10 -10,0 z m 10,0 10,0 0,10 -10,0 z m 10,0 10,0 0,10 -10,0 z m 20,0 10,0 0,10 -10,0 z m -140,10 10,0 0,10 -10,0 z m 20,0 10,0 0,10 -10,0 z m 60,0 10,0 0,10 -10,0 z m 40,0 10,0 0,10 -10,0 z m 10,0 10,0 0,10 -10,0 z m 10,0 10,0 0,10 -10,0 z m -220,10 10,0 0,10 -10,0 z m 10,0 10,0 0,10 -10,0 z m 10,0 10,0 0,10 -10,0 z m 10,0 10,0 0,10 -10,0 z m 10,0 10,0 0,10 -10,0 z m 10,0 10,0 0,10 -10,0 z m 10,0 10,0 0,10 -10,0 z m 20,0 10,0 0,10 -10,0 z m 10,0 10,0 0,10 -10,0 z m 10,0 10,0 0,10 -10,0 z m 10,0 10,0 0,10 -10,0 z m 10,0 10,0 0,10 -10,0 z m 40,0 10,0 0,10 -10,0 z m 20,0 10,0 0,10 -10,0 z m 20,0 10,0 0,10 -10,0 z m 10,0 10,0 0,10 -10,0 z m 10,0 10,0 0,10 -10,0 z m 10,0 10,0 0,10 -10,0 z m 10,0 10,0 0,10 -10,0 z m -240,10 10,0 0,10 -10,0 z m 60,0 10,0 0,10 -10,0 z m 30,0 10,0 0,10 -10,0 z m 10,0 10,0 0,10 -10,0 z m 10,0 10,0 0,10 -10,0 z m 30,0 10,0 0,10 -10,0 z m 20,0 10,0 0,10 -10,0 z m 40,0 10,0 0,10 -10,0 z m 10,0 10,0 0,10 -10,0 z m 30,0 10,0 0,10 -10,0 z m -240,10 10,0 0,10 -10,0 z m 20,0 10,0 0,10 -10,0 z m 10,0 10,0 0,10 -10,0 z m 10,0 10,0 0,10 -10,0 z m 20,0 10,0 0,10 -10,0 z m 20,0 10,0 0,10 -10,0 z m 10,0 10,0 0,10 -10,0 z m 20,0 10,0 0,10 -10,0 z m 40,0 10,0 0,10 -10,0 z m 10,0 10,0 0,10 -10,0 z m 10,0 10,0 0,10 -10,0 z m 10,0 10,0 0,10 -10,0 z m 10,0 10,0 0,10 -10,0 z m 10,0 10,0 0,10 -10,0 z m 10,0 10,0 0,10 -10,0 z m 10,0 10,0 0,10 -10,0 z m 10,0 10,0 0,10 -10,0 z m 10,0 10,0 0,10 -10,0 z m -240,10 10,0 0,10 -10,0 z m 20,0 10,0 0,10 -10,0 z m 10,0 10,0 0,10 -10,0 z m 10,0 10,0 0,10 -10,0 z m 20,0 10,0 0,10 -10,0 z m 20,0 10,0 0,10 -10,0 z m 10,0 10,0 0,10 -10,0 z m 30,0 10,0 0,10 -10,0 z m 10,0 10,0 0,10 -10,0 z m 10,0 10,0 0,10 -10,0 z m 30,0 10,0 0,10 -10,0 z m 10,0 10,0 0,10 -10,0 z m 10,0 10,0 0,10 -10,0 z m 10,0 10,0 0,10 -10,0 z m 20,0 10,0 0,10 -10,0 z m 10,0 10,0 0,10 -10,0 z m 10,0 10,0 0,10 -10,0 z m -240,10 10,0 0,10 -10,0 z m 20,0 10,0 0,10 -10,0 z m 10,0 10,0 0,10 -10,0 z m 10,0 10,0 0,10 -10,0 z m 20,0 10,0 0,10 -10,0 z m 20,0 10,0 0,10 -10,0 z m 50,0 10,0 0,10 -10,0 z m 10,0 10,0 0,10 -10,0 z m 50,0 10,0 0,10 -10,0 z m 30,0 10,0 0,10 -10,0 z m 20,0 10,0 0,10 -10,0 z m -240,10 10,0 0,10 -10,0 z m 60,0 10,0 0,10 -10,0 z m 20,0 10,0 0,10 -10,0 z m 10,0 10,0 0,10 -10,0 z m 30,0 10,0 0,10 -10,0 z m 10,0 10,0 0,10 -10,0 z m 20,0 10,0 0,10 -10,0 z m 10,0 10,0 0,10 -10,0 z m 10,0 10,0 0,10 -10,0 z m 20,0 10,0 0,10 -10,0 z m 10,0 10,0 0,10 -10,0 z m 10,0 10,0 0,10 -10,0 z m 30,0 10,0 0,10 -10,0 z m -240,10 10,0 0,10 -10,0 z m 10,0 10,0 0,10 -10,0 z m 10,0 10,0 0,10 -10,0 z m 10,0 10,0 0,10 -10,0 z m 10,0 10,0 0,10 -10,0 z m 10,0 10,0 0,10 -10,0 z m 10,0 10,0 0,10 -10,0 z m 20,0 10,0 0,10 -10,0 z m 10,0 10,0 0,10 -10,0 z m 30,0 10,0 0,10 -10,0 z m 20,0 10,0 0,10 -10,0 z m 50,0 10,0 0,10 -10,0 z m 10,0 10,0 0,10 -10,0 z m 10,0 10,0 0,10 -10,0 z m 10,0 10,0 0,10 -10,0 z m 10,0 10,0 0,10 -10,0 z m 10,0 10,0 0,10 -10,0 z"
           style="fill:#000000"
           inkscape:connector-curvature="0" />
      </g>
    </g>
  </g>
</svg>
