<?xml version="1.0" encoding="UTF-8" standalone="no"?>
<!-- Created with Inkscape (http://www.inkscape.org/) -->

<svg
   xmlns:dc="http://purl.org/dc/elements/1.1/"
   xmlns:cc="http://creativecommons.org/ns#"
   xmlns:rdf="http://www.w3.org/1999/02/22-rdf-syntax-ns#"
   xmlns:svg="http://www.w3.org/2000/svg"
   xmlns="http://www.w3.org/2000/svg"
   xmlns:sodipodi="http://sodipodi.sourceforge.net/DTD/sodipodi-0.dtd"
   xmlns:inkscape="http://www.inkscape.org/namespaces/inkscape"
   width="1052.3622"
   height="744.09448"
   id="svg2"
   version="1.1"
   inkscape:version="0.48.5 r10040"
   sodipodi:docname="logo+test.svg">
  <defs
     id="defs4" />
  <sodipodi:namedview
     id="base"
     pagecolor="#ffffff"
     bordercolor="#666666"
     borderopacity="1.0"
     inkscape:pageopacity="0.0"
     inkscape:pageshadow="2"
     inkscape:zoom="0.48083261"
     inkscape:cx="453.4226"
     inkscape:cy="507.01926"
     inkscape:document-units="px"
     inkscape:current-layer="layer1"
     showgrid="false"
     units="cm"
     inkscape:window-width="1436"
     inkscape:window-height="855"
     inkscape:window-x="4"
     inkscape:window-y="0"
     inkscape:window-maximized="1" />
  <metadata
     id="metadata7">
    <rdf:RDF>
      <cc:Work
         rdf:about="">
        <dc:format>image/svg+xml</dc:format>
        <dc:type
           rdf:resource="http://purl.org/dc/dcmitype/StillImage" />
        <dc:title></dc:title>
      </cc:Work>
    </rdf:RDF>
  </metadata>
  <g
     inkscape:label="Ebene 1"
     inkscape:groupmode="layer"
     id="layer1"
     transform="translate(0,-308.26639)">
    <g
       id="g3972"
       transform="matrix(1.618268,0,0,1.6182682,-37.416432,437.5734)"
       style="fill:#000000;fill-opacity:1;stroke:none">
      <g
         id="g4413"
         transform="translate(-448.05262,-67.701334)"
         style="fill:#000000;fill-opacity:1;stroke:none">
        <path
           sodipodi:nodetypes="ccccsssccssccc"
           inkscape:connector-curvature="0"
           style="color:#000000;fill:#000000;fill-opacity:1;stroke:none;stroke-width:1.79039955;marker:none;visibility:visible;display:inline;overflow:visible;enable-background:accumulate"
           id="path4996-4-0-4-8-9-7-2-6-0-9-9-2"
           d="m 534.12054,161.88159 0,10.40612 47.25268,0 c -9.52806,9.54312 -19.06966,19.07261 -28.62694,28.58644 l 12.59261,0 c 20.11218,0 36.40116,16.32948 36.40116,36.44165 0,20.11218 -16.28898,36.40117 -36.40116,36.40117 -20.11217,0 -36.44165,-16.28899 -36.44165,-36.40117 l -10.40612,0 c 0,25.8585 20.98928,46.8073 46.84777,46.8073 25.85849,0 46.80728,-20.9488 46.80728,-46.8073 0,-21.99252 -15.15229,-40.48031 -35.59135,-45.51157 l 29.96314,-29.92264 z" />
        <g
           id="g4409"
           transform="matrix(-1,0,0,-1,1130.6373,475.18252)"
           style="fill:#000000;fill-opacity:1;stroke:none">
          <path
             inkscape:connector-curvature="0"
             style="color:#000000;fill:#000000;fill-opacity:1;stroke:none;stroke-width:1.79039955;marker:none;visibility:visible;display:inline;overflow:visible;enable-background:accumulate"
             id="path4996-4-0-4-2-1-9-8-5-8-9"
             d="m 565.33889,208.68886 c -15.80241,0 -28.62694,12.82454 -28.62694,28.62694 0,12.13086 7.56029,22.4873 18.22083,26.6429 l 0,-11.74231 c -4.72379,-3.28183 -7.81471,-8.71082 -7.81471,-14.90059 0,-10.05608 8.16474,-18.22082 18.22082,-18.22082 10.05608,0 18.18034,8.16474 18.18034,18.22082 0,6.17974 -3.07517,11.61703 -7.77422,14.90059 l 0,11.74231 c 10.64945,-4.1556 18.18033,-14.51204 18.18033,-26.6429 0,-15.8024 -12.78404,-28.62694 -28.58645,-28.62694 z" />
          <path
             inkscape:connector-curvature="0"
             style="color:#000000;fill:#000000;fill-opacity:1;stroke:none;stroke-width:1.79039955;marker:none;visibility:visible;display:inline;overflow:visible;enable-background:accumulate"
             id="rect5023-1-6-7-7-5-2-9-1-8-8"
             d="m 565.33889,232.0925 c -2.87317,0 -5.2233,2.35013 -5.2233,5.2233 l 0,31.17786 10.40612,0 0,-31.17786 c 0,-2.87317 -2.30965,-5.2233 -5.18282,-5.2233 z" />
        </g>
        <path
           inkscape:connector-curvature="0"
           style="fill:#000000;fill-opacity:1;stroke:none"
           id="path5018-1-3-2-1-4-7-5-6"
           d="m 630.85289,149.49143 c -5.72232,0.0544 -10.36388,0.85328 -11.49937,1.53864 -2.27103,1.37086 -2.80747,4.65767 -2.10552,5.42576 0.70195,0.76784 11.43046,7.65845 16.11531,9.92023 12.61445,6.09045 -1.28767,29.39594 -12.14722,25.22572 -7.69621,-2.95537 -16.42692,-11.75721 -17.8969,-11.82329 -1.46996,-0.0648 -3.36351,0.9263 -3.84662,3.4822 -0.48303,2.55591 3.00841,14.89689 11.7828,24.49689 10.52926,11.52022 26.92634,-1.20851 26.92634,9.31286 l 0,48.87231 a 13.017768,13.017768 0 0 0 26.03553,0 l 0,-62.4367 0,-14.57666 c 0,-5.46709 6.70282,-27.38877 -15.46745,-36.56312 -5.37441,-2.22388 -12.17459,-2.92922 -17.8969,-2.87484 z" />
      </g>
      <path
         inkscape:connector-curvature="0"
         style="color:#000000;fill:#000000;fill-opacity:1;stroke:none;stroke-width:1.79039955;marker:none;visibility:visible;display:inline;overflow:visible;enable-background:accumulate"
         id="path7438-70-0-9-0-2"
         d="m 150,23.121296 c -70.070867,0 -126.878717,56.8078 -126.878717,126.878714 0,70.0708 56.80785,126.87869 126.878717,126.87869 70.07082,0 126.87872,-56.80789 126.87872,-126.87869 C 276.87872,79.929096 220.07082,23.121296 150,23.121296 z m 0,17.3855 c 60.46032,0 109.45402,49.0329 109.45402,109.493214 0,60.4603 -48.9937,109.45399 -109.45402,109.45399 -60.472228,0.3888 -108.645337,-55.93299 -109.493167,-109.45399 0,-60.460314 49.03291,-109.493214 109.493227,-109.493214 z" />
      <path
         d="m 150,23.121296 c -70.070867,0 -126.878717,56.8078 -126.878717,126.878714 0,70.0708 56.80785,126.87869 126.878717,126.87869 70.07082,0 126.87872,-56.80789 126.87872,-126.87869 C 276.87872,79.929096 220.07082,23.121296 150,23.121296 z m 0,17.3855 c 60.46032,0 109.45402,49.0329 109.45402,109.493214 0,60.4603 -48.9937,109.45399 -109.45402,109.45399 -60.472228,0.3888 -108.645337,-55.93299 -109.493167,-109.45399 0,-60.460314 49.03291,-109.493214 109.493227,-109.493214 z"
         id="path3981"
         style="color:#000000;fill:#000000;fill-opacity:1;stroke:none;stroke-width:1.79039955;marker:none;visibility:visible;display:inline;overflow:visible;enable-background:accumulate"
         inkscape:connector-curvature="0" />
      <path
         inkscape:connector-curvature="0"
         style="color:#000000;fill:#000000;fill-opacity:1;stroke:none;stroke-width:1.79039955;marker:none;visibility:visible;display:inline;overflow:visible;enable-background:accumulate"
         id="path3983"
         d="m 150,23.121296 c -70.070867,0 -126.878717,56.8078 -126.878717,126.878714 0,70.0708 56.80785,126.87869 126.878717,126.87869 70.07082,0 126.87872,-56.80789 126.87872,-126.87869 C 276.87872,79.929096 220.07082,23.121296 150,23.121296 z m 0,17.3855 c 60.46032,0 109.45402,49.0329 109.45402,109.493214 0,60.4603 -48.9937,109.45399 -109.45402,109.45399 -60.472228,0.3888 -108.645337,-55.93299 -109.493167,-109.45399 0,-60.460314 49.03291,-109.493214 109.493227,-109.493214 z" />
    </g>
    <g
       style="font-size:45.48593521px;font-style:normal;font-weight:normal;line-height:125%;letter-spacing:0px;word-spacing:0px;fill:#000000;fill-opacity:1;stroke:none;font-family:Sans"
       id="text4042"
       transform="matrix(0.28796446,0,0,0.28796446,-224.03714,640.71646)">
      <path
         d="m 2324.4779,344.22882 c -3.7757,0 -5.6636,-1.88784 -5.6635,-5.66353 l 0,-204.38687 c -1e-4,-3.77547 1.8878,-5.66331 5.6635,-5.66353 l 35.3138,0 c 3.7756,2.2e-4 5.6634,1.88806 5.6635,5.66353 l 0,72.79304 c -10e-5,3.77582 1.8878,5.66367 5.6635,5.66353 l 60.7997,0 c 3.7756,1.4e-4 5.6634,-1.88771 5.6635,-5.66353 l 0,-72.79304 c -1e-4,-3.77547 1.8877,-5.66331 5.6636,-5.66353 l 35.3138,0 c 3.7755,2.2e-4 5.6633,1.88806 5.6635,5.66353 l 0,204.38687 c -2e-4,3.77569 -1.888,5.66353 -5.6635,5.66353 l -35.3138,0 c -3.7759,0 -5.6637,-1.88784 -5.6636,-5.66353 l 0,-77.79028 c -1e-4,-3.7756 -1.8879,-5.66344 -5.6635,-5.66353 l -60.7997,0 c -3.7757,9e-5 -5.6636,1.88793 -5.6635,5.66353 l 0,77.79028 c -10e-5,3.77569 -1.8879,5.66353 -5.6635,5.66353 l -35.3138,0"
         style="font-size:341.14450073px;font-variant:normal;font-stretch:normal;text-align:center;text-anchor:middle;fill:#000000;fill-opacity:1;stroke:none;font-family:Politics Head;-inkscape-font-specification:Politics Head"
         id="path3019"
         inkscape:connector-curvature="0" />
      <path
         d="m 2589.6644,267.77114 39.145,0 c 2.8872,8e-5 4.0532,-1.16594 3.4981,-3.49806 l -19.1561,-71.96017 -0.8328,-6.82955 -5.8301,0 -0.8329,6.82955 -19.3227,71.96017 c -0.5553,2.33212 0.5552,3.49814 3.3315,3.49806 m 51.8047,42.47649 -64.1312,0 c -2.11,3e-5 -3.387,0.66633 -3.8312,1.99889 l -7.829,29.48368 c -0.4442,1.66575 -1.5547,2.49862 -3.3315,2.49862 l -41.1439,0 c -2.5541,0 -3.8312,-0.83287 -3.8312,-2.49862 0,-0.99944 0.2221,-2.05441 0.6663,-3.16491 l 60.9663,-206.55234 c 0.6662,-2.33182 2.443,-3.49784 5.3304,-3.49806 l 50.472,0 c 2.8872,2.2e-4 4.664,1.16624 5.3304,3.49806 l 61.1328,207.88493 c 0.2219,0.66631 0.333,1.27708 0.3332,1.83232 -2e-4,1.66575 -1.2218,2.49862 -3.6647,2.49862 l -41.3104,0 c -1.777,0 -2.943,-0.83287 -3.4981,-2.49862 l -7.829,-29.48368 c -0.4443,-1.33256 -1.7214,-1.99886 -3.8312,-1.99889"
         style="font-size:341.14450073px;font-variant:normal;font-stretch:normal;text-align:center;text-anchor:middle;fill:#000000;fill-opacity:1;stroke:none;font-family:Politics Head;-inkscape-font-specification:Politics Head"
         id="path3021"
         inkscape:connector-curvature="0" />
      <path
         d="m 2800.2146,347.56031 c -22.9874,0 -40.1445,-5.16381 -51.4716,-15.49143 -11.216,-10.43864 -16.824,-25.31928 -16.824,-44.64195 l 0,-100.4444 c 0,-18.54512 5.8301,-33.20366 17.4903,-43.97566 11.7713,-10.7716 28.7063,-16.15751 50.8053,-16.15772 l 23.9867,0 c 16.6573,2.1e-4 30.8161,3.88695 42.4765,11.66021 11.66,7.77367 19.4335,18.48995 23.3204,32.14887 0.6661,2.33221 0.9993,3.99796 0.9994,4.99723 -1e-4,1.66592 -0.9441,2.83194 -2.8317,3.49807 l -30.3166,10.99391 c -0.8885,0.3333 -1.7214,0.49988 -2.4986,0.49973 -2.5543,1.5e-4 -4.2756,-1.27692 -5.1638,-3.83122 -3.5537,-11.66004 -12.2156,-17.49014 -25.9856,-17.49032 l -23.9867,0 c -6.441,1.8e-4 -11.6603,2.22117 -15.658,6.66298 -3.9979,4.3311 -5.9968,9.66148 -5.9967,15.99115 l 0,90.44993 c -1e-4,6.66304 1.9433,12.10447 5.8301,16.3243 3.9977,4.21993 9.2725,6.32987 15.8246,6.32983 l 23.9867,0 c 13.4369,4e-5 22.0987,-5.83006 25.9856,-17.49032 0.8882,-2.55408 2.6095,-3.83115 5.1638,-3.83121 0.7772,6e-5 1.6101,0.16664 2.4986,0.49972 l 30.3166,10.99392 c 1.8876,0.66634 2.8316,1.83236 2.8317,3.49806 -1e-4,2.10999 -0.3333,4.33098 -0.9994,6.66298 -3.7759,13.43703 -11.4938,23.82016 -23.1539,31.14943 -11.5493,7.32927 -25.8191,10.99391 -42.8096,10.99391 l -23.8201,0"
         style="font-size:341.14450073px;font-variant:normal;font-stretch:normal;text-align:center;text-anchor:middle;fill:#000000;fill-opacity:1;stroke:none;font-family:Politics Head;-inkscape-font-specification:Politics Head"
         id="path3023"
         inkscape:connector-curvature="0" />
      <path
         d="m 2938.8045,344.22882 c -3.7757,0 -5.6636,-1.88784 -5.6635,-5.66353 l 0,-204.38687 c -1e-4,-3.77547 1.8878,-5.66331 5.6635,-5.66353 l 35.3138,0 c 3.7756,2.2e-4 5.6634,1.88806 5.6635,5.66353 l 0,58.63421 c -1e-4,9.21727 -0.8885,16.93521 -2.6652,23.15385 l 67.1295,-85.28612 c 1.1104,-1.44343 2.6095,-2.16525 4.4975,-2.16547 l 38.3122,0 c 3.7755,2.2e-4 5.6633,1.88806 5.6635,5.66353 -2e-4,1.77701 -0.4444,3.1096 -1.3326,3.99779 l -64.964,79.62259 c -0.6665,0.77748 -0.9996,1.38825 -0.9995,1.83232 -1e-4,0.22223 0.333,0.833 0.9995,1.83232 l 77.4571,113.60379 c 0.6661,0.99945 0.9992,2.10995 0.9994,3.33148 -2e-4,3.88674 -1.888,5.83011 -5.6635,5.83011 l -41.3105,0 c -2.5543,0 -4.5532,-1.16602 -5.9967,-3.49806 l -52.4709,-82.78751 c -0.7774,-1.33251 -1.7769,-1.99881 -2.9983,-1.99889 -0.8885,8e-5 -1.7769,0.55533 -2.6652,1.66574 l -13.9923,17.49032 0,63.46487 c -1e-4,3.77569 -1.8879,5.66353 -5.6635,5.66353 l -35.3138,0"
         style="font-size:341.14450073px;font-variant:normal;font-stretch:normal;text-align:center;text-anchor:middle;fill:#000000;fill-opacity:1;stroke:none;font-family:Politics Head;-inkscape-font-specification:Politics Head"
         id="path3025"
         inkscape:connector-curvature="0" />
      <path
         d="m 3274.2855,344.22882 -130.2612,0 c -3.7757,0 -5.6636,-1.88784 -5.6636,-5.66353 l 0,-202.72112 c 0,-3.77548 1.8879,-5.66332 5.6636,-5.66353 l 130.2612,0 c 3.7755,2.1e-4 5.6634,1.88805 5.6635,5.66353 l 0,31.14942 c -1e-4,3.77586 -1.888,5.66371 -5.6635,5.66353 l -83.6204,0 c -3.7757,1.8e-4 -5.6636,1.88802 -5.6635,5.66354 l 0,31.14942 c -1e-4,3.77582 1.8878,5.66366 5.6635,5.66353 l 68.6287,0 c 3.7755,1.3e-4 5.6634,1.88797 5.6635,5.66353 l 0,31.14943 c -1e-4,3.77577 -1.888,5.66362 -5.6635,5.66353 l -68.6287,0 c -3.7757,9e-5 -5.6636,1.88793 -5.6635,5.66353 l 0,32.81517 c -1e-4,3.77573 1.8878,5.66358 5.6635,5.66353 l 83.6204,0 c 3.7755,5e-5 5.6634,1.88789 5.6635,5.66353 l 0,31.14943 c -1e-4,3.77569 -1.888,5.66353 -5.6635,5.66353"
         style="font-size:341.14450073px;font-variant:normal;font-stretch:normal;text-align:center;text-anchor:middle;fill:#000000;fill-opacity:1;stroke:none;font-family:Politics Head;-inkscape-font-specification:Politics Head"
         id="path3027"
         inkscape:connector-curvature="0" />
      <path
         d="m 3419.0387,219.96427 c 6.4407,1.3e-4 11.9377,-1.99877 16.4908,-5.99668 4.5529,-3.99765 6.8295,-8.93936 6.8296,-14.82513 l 0,-5.8301 c -1e-4,-5.88548 -2.2767,-10.77166 -6.8296,-14.65856 -4.4421,-3.99761 -9.939,-5.9965 -16.4908,-5.99668 l -39.8113,0 c -3.7758,1.8e-4 -5.6636,1.88802 -5.6636,5.66354 l 0,35.98008 c 0,3.77581 1.8878,5.66366 5.6636,5.66353 l 39.8113,0 m -86.4522,124.26455 c -3.7757,0 -5.6635,-1.88784 -5.6635,-5.66353 l 0,-202.72112 c 0,-3.77548 1.8878,-5.66332 5.6635,-5.66353 l 85.9525,0 c 21.2103,2.1e-4 37.8677,5.94136 49.9723,17.82346 12.1042,11.77145 18.1564,27.76258 18.1566,47.97345 -2e-4,23.32055 -9.3839,40.6998 -28.1511,52.13781 -1.6659,0.99954 -2.4987,2.11003 -2.4986,3.33148 -1e-4,0.99954 0.2775,2.22109 0.8329,3.66464 l 32.6486,79.45602 c 1.4434,3.3315 2.1653,5.66354 2.1654,6.99613 -1e-4,1.77679 -1.3327,2.66519 -3.9977,2.66519 l -40.3111,0 c -1.4438,0 -2.5543,-0.8884 -3.3315,-2.66519 l -32.482,-78.29 c -0.6664,-1.55461 -1.8324,-2.33196 -3.498,-2.33204 l -28.8174,0 c -3.7758,8e-5 -5.6636,1.88792 -5.6636,5.66353 l 0,71.96017 c 0,3.77569 -1.8879,5.66353 -5.6635,5.66353 l -35.3138,0"
         style="font-size:341.14450073px;font-variant:normal;font-stretch:normal;text-align:center;text-anchor:middle;fill:#000000;fill-opacity:1;stroke:none;font-family:Politics Head;-inkscape-font-specification:Politics Head"
         id="path3029"
         inkscape:connector-curvature="0" />
      <path
         d="m 3593.7753,347.56031 c -19.3227,0 -35.7581,-3.94226 -49.3061,-11.82679 -13.5481,-7.99555 -22.432,-18.98946 -26.6519,-32.98174 -0.6663,-2.332 -0.9994,-3.99774 -0.9994,-4.99723 0,-1.6657 0.9439,-2.83172 2.8317,-3.49807 l 31.9823,-12.15993 c 0.7773,-0.33309 1.6102,-0.49966 2.4986,-0.49973 2.221,7e-5 3.9423,1.27713 5.1639,3.83122 5.7745,12.4376 17.3236,18.65638 34.6474,18.65634 8.3287,4e-5 14.7695,-1.88781 19.3227,-5.66354 4.5529,-3.77563 6.8294,-8.71734 6.8295,-14.82512 -1e-4,-5.66347 -2.6097,-10.71622 -7.829,-15.15828 -5.2194,-4.55295 -14.492,-8.93941 -27.8179,-13.15938 -22.5431,-7.10708 -39.034,-16.26867 -49.4726,-27.48479 -10.3277,-11.21589 -15.4915,-25.1526 -15.4914,-41.81019 -10e-5,-15.76887 6.8295,-29.53902 20.4886,-41.31047 13.7701,-11.8821 31.4825,-17.82325 53.1373,-17.82346 17.6568,2.1e-4 32.6484,3.7759 44.9751,11.32706 12.4374,7.55157 21.0993,18.1568 25.9856,31.81572 0.6661,2.33222 0.9993,3.99796 0.9994,4.99724 -1e-4,1.66591 -0.944,2.83193 -2.8317,3.49806 l -30.3166,10.99391 c -0.7775,0.33331 -1.6103,0.49988 -2.4986,0.49973 -2.2211,1.5e-4 -3.9424,-1.27692 -5.1638,-3.83121 -2.5543,-5.44127 -6.4965,-9.71668 -11.8268,-12.82624 -5.2194,-3.10921 -11.3827,-4.66391 -18.4898,-4.66408 -7.8846,1.7e-4 -14.1033,1.88801 -18.6563,5.66353 -4.442,3.77585 -6.663,8.49546 -6.663,14.15883 0,5.44158 2.6096,10.16119 7.829,14.15883 5.2193,3.88687 14.603,8.16228 28.1511,12.82623 43.0871,14.54762 64.6307,36.702 64.6309,66.46321 -2e-4,20.21108 -6.6631,36.20221 -19.9889,47.97345 -13.3261,11.77126 -31.8159,17.65689 -55.4693,17.65689"
         style="font-size:341.14450073px;font-variant:normal;font-stretch:normal;text-align:center;text-anchor:middle;fill:#000000;fill-opacity:1;stroke:none;font-family:Politics Head;-inkscape-font-specification:Politics Head"
         id="path3031"
         inkscape:connector-curvature="0" />
      <path
         d="m 3750.3553,344.22882 -35.3138,0 c -3.7757,0 -5.6636,-1.88784 -5.6635,-5.66353 l 0,-202.72112 c -1e-4,-3.77548 1.8878,-5.66332 5.6635,-5.66353 l 78.7897,0 c 22.4319,2.1e-4 39.4225,5.77479 50.9718,17.32374 11.549,11.4383 17.3236,27.42943 17.3237,47.97345 l 0,5.1638 c -10e-5,8.55096 -1.4438,16.7131 -4.3309,24.48645 -2.8875,7.77359 -7.1073,14.71418 -12.6597,20.82181 -5.4415,6.10782 -12.6042,10.994 -21.4881,14.65855 -8.8841,3.66472 -18.8785,5.49704 -29.9834,5.49696 l -31.9823,0 c -3.7757,8e-5 -5.6636,1.88792 -5.6635,5.66353 l 0,66.79636 c -10e-5,3.77569 -1.8879,5.66353 -5.6635,5.66353 m 11.327,-120.43334 32.9818,0 c 6.7739,1.2e-4 12.3264,-2.05429 16.6574,-6.16325 4.4419,-4.21976 6.6629,-9.82776 6.663,-16.82402 l 0,-4.83066 c -1e-4,-6.99597 -2.2211,-12.60398 -6.663,-16.82402 -4.4421,-4.33077 -9.9946,-6.49623 -16.6574,-6.49641 l -32.9818,0 c -3.7757,1.8e-4 -5.6636,1.88802 -5.6635,5.66354 l 0,39.81129 c -10e-5,3.77581 1.8878,5.66365 5.6635,5.66353"
         style="font-size:341.14450073px;font-variant:normal;font-stretch:normal;text-align:center;text-anchor:middle;fill:#000000;fill-opacity:1;stroke:none;font-family:Politics Head;-inkscape-font-specification:Politics Head"
         id="path3033"
         inkscape:connector-curvature="0" />
      <path
         d="m 3936.2524,267.77114 39.145,0 c 2.8872,8e-5 4.0532,-1.16594 3.4981,-3.49806 l -19.1561,-71.96017 -0.8329,-6.82955 -5.8301,0 -0.8328,6.82955 -19.3227,71.96017 c -0.5553,2.33212 0.5552,3.49814 3.3315,3.49806 m 51.8047,42.47649 -64.1312,0 c -2.11,3e-5 -3.3871,0.66633 -3.8312,1.99889 l -7.829,29.48368 c -0.4443,1.66575 -1.5548,2.49862 -3.3315,2.49862 l -41.1439,0 c -2.5541,0 -3.8312,-0.83287 -3.8312,-2.49862 0,-0.99944 0.2221,-2.05441 0.6663,-3.16491 l 60.9662,-206.55234 c 0.6663,-2.33182 2.4431,-3.49784 5.3304,-3.49806 l 50.4721,0 c 2.8871,2.2e-4 4.6639,1.16624 5.3304,3.49806 l 61.1328,207.88493 c 0.2219,0.66631 0.333,1.27708 0.3331,1.83232 -10e-5,1.66575 -1.2217,2.49862 -3.6646,2.49862 l -41.3105,0 c -1.7769,0 -2.9429,-0.83287 -3.498,-2.49862 l -7.829,-29.48368 c -0.4444,-1.33256 -1.7214,-1.99886 -3.8312,-1.99889"
         style="font-size:341.14450073px;font-variant:normal;font-stretch:normal;text-align:center;text-anchor:middle;fill:#000000;fill-opacity:1;stroke:none;font-family:Politics Head;-inkscape-font-specification:Politics Head"
         id="path3035"
         inkscape:connector-curvature="0" />
      <path
         d="m 4146.8024,347.56031 c -22.9873,0 -40.1445,-5.16381 -51.4715,-15.49143 -11.216,-10.43864 -16.824,-25.31928 -16.824,-44.64195 l 0,-100.4444 c 0,-18.54512 5.8301,-33.20366 17.4903,-43.97566 11.7712,-10.7716 28.7063,-16.15751 50.8052,-16.15772 l 23.9868,0 c 16.6573,2.1e-4 30.8161,3.88695 42.4765,11.66021 11.66,7.77367 19.4335,18.48995 23.3204,32.14887 0.6661,2.33221 0.9992,3.99796 0.9994,4.99723 -2e-4,1.66592 -0.9441,2.83194 -2.8317,3.49807 l -30.3166,10.99391 c -0.8885,0.3333 -1.7214,0.49988 -2.4986,0.49973 -2.5543,1.5e-4 -4.2756,-1.27692 -5.1638,-3.83122 -3.5537,-11.66004 -12.2156,-17.49014 -25.9856,-17.49032 l -23.9868,0 c -6.4409,1.8e-4 -11.6602,2.22117 -15.658,6.66298 -3.9978,4.3311 -5.9967,9.66148 -5.9966,15.99115 l 0,90.44993 c -10e-5,6.66304 1.9433,12.10447 5.8301,16.3243 3.9977,4.21993 9.2725,6.32987 15.8245,6.32983 l 23.9868,0 c 13.4368,4e-5 22.0987,-5.83006 25.9856,-17.49032 0.8882,-2.55408 2.6095,-3.83115 5.1638,-3.83121 0.7772,6e-5 1.6101,0.16664 2.4986,0.49972 l 30.3166,10.99392 c 1.8876,0.66634 2.8315,1.83236 2.8317,3.49806 -2e-4,2.10999 -0.3333,4.33098 -0.9994,6.66298 -3.7759,13.43703 -11.4938,23.82016 -23.1539,31.14943 -11.5493,7.32927 -25.8191,10.99391 -42.8096,10.99391 l -23.8202,0"
         style="font-size:341.14450073px;font-variant:normal;font-stretch:normal;text-align:center;text-anchor:middle;fill:#000000;fill-opacity:1;stroke:none;font-family:Politics Head;-inkscape-font-specification:Politics Head"
         id="path3037"
         inkscape:connector-curvature="0" />
      <path
         d="m 4415.6537,344.22882 -130.2613,0 c -3.7757,0 -5.6635,-1.88784 -5.6635,-5.66353 l 0,-202.72112 c 0,-3.77548 1.8878,-5.66332 5.6635,-5.66353 l 130.2613,0 c 3.7755,2.1e-4 5.6633,1.88805 5.6635,5.66353 l 0,31.14942 c -2e-4,3.77586 -1.888,5.66371 -5.6635,5.66353 l -83.6204,0 c -3.7758,1.8e-4 -5.6636,1.88802 -5.6635,5.66354 l 0,31.14942 c -1e-4,3.77582 1.8877,5.66366 5.6635,5.66353 l 68.6287,0 c 3.7755,1.3e-4 5.6633,1.88797 5.6635,5.66353 l 0,31.14943 c -2e-4,3.77577 -1.888,5.66362 -5.6635,5.66353 l -68.6287,0 c -3.7758,9e-5 -5.6636,1.88793 -5.6635,5.66353 l 0,32.81517 c -1e-4,3.77573 1.8877,5.66358 5.6635,5.66353 l 83.6204,0 c 3.7755,5e-5 5.6633,1.88789 5.6635,5.66353 l 0,31.14943 c -2e-4,3.77569 -1.888,5.66353 -5.6635,5.66353"
         style="font-size:341.14450073px;font-variant:normal;font-stretch:normal;text-align:center;text-anchor:middle;fill:#000000;fill-opacity:1;stroke:none;font-family:Politics Head;-inkscape-font-specification:Politics Head"
         id="path3039"
         inkscape:connector-curvature="0" />
    </g>
    <g
       style="font-size:182.17214966px;font-style:normal;font-weight:normal;line-height:125%;letter-spacing:0px;word-spacing:0px;fill:#000000;fill-opacity:1;stroke:none;font-family:Sans"
       id="text4050"
       transform="matrix(0.28755782,0,0,0.28755782,-221.33416,642.49794)">
      <path
         d="m 2323.5813,60.25938 c -7.2585,0 -10.8877,-3.629207 -10.8876,-10.887632 l 0,-392.915458 c -10e-5,-7.25801 3.6291,-10.88721 10.8876,-10.88763 l 62.764,0 c 4.2695,4.2e-4 7.365,1.4948 9.2865,4.48314 l 127.7696,221.59535 c 9.393,15.58444 15.2638,27.21925 17.6123,34.904473 l 2.5618,0 c -3.6294,-15.370603 -6.6182,-34.370573 -8.9662,-56.999963 -2.3486,-22.84244 -3.5228,-43.33679 -3.5225,-61.4831 l 0,-131.61227 c -3e-4,-7.25801 3.6289,-10.88721 10.8876,-10.88763 l 67.8876,0 c 7.2581,4.2e-4 10.8873,3.62962 10.8876,10.88763 l 0,392.915458 c -3e-4,7.258425 -3.6295,10.887632 -10.8876,10.887632 l -62.1235,0 c -4.0565,0 -7.2587,-1.707862 -9.6068,-5.123592 L 2408.761,-158.13372 c -8.9664,-16.01099 -13.4495,-25.40424 -13.4494,-28.17976 l -2.5618,0 c 2.5617,9.39349 4.8032,24.1238 6.7247,44.19098 1.9212,19.8541 2.8819,40.02822 2.882,60.52243 l 0,130.971818 c -10e-5,7.258425 -3.6293,10.887632 -10.8876,10.887632 l -67.8876,0"
         style="font-size:655.81976318px;fill:#000000;fill-opacity:1;stroke:none;font-family:Politics Head;-inkscape-font-specification:Politics Head"
         id="path3042"
         inkscape:connector-curvature="0" />
      <path
         d="m 2985.1651,60.25938 -250.4155,0 c -7.2585,0 -10.8877,-3.629207 -10.8877,-10.887632 l 0,-389.713208 c 0,-7.25802 3.6292,-10.88722 10.8877,-10.88763 l 250.4155,0 c 7.2581,4.1e-4 10.8873,3.62961 10.8876,10.88763 l 0,59.88198 c -3e-4,7.25875 -3.6295,10.88796 -10.8876,10.88763 l -160.7527,0 c -7.2585,3.3e-4 -10.8878,3.62954 -10.8876,10.88763 l 0,59.88198 c -2e-4,7.25868 3.6291,10.88789 10.8876,10.88764 l 131.9325,0 c 7.2581,2.5e-4 10.8873,3.62945 10.8876,10.88763 l 0,59.88198 c -3e-4,7.25859 -3.6295,10.8878 -10.8876,10.88763 l -131.9325,0 c -7.2585,1.7e-4 -10.8878,3.62938 -10.8876,10.887636 l 0,63.084226 c -2e-4,7.258507 3.6291,10.887714 10.8876,10.887632 l 160.7527,0 c 7.2581,8.2e-5 10.8873,3.629289 10.8876,10.887633 l 0,59.881981 c -3e-4,7.258425 -3.6295,10.887632 -10.8876,10.887632"
         style="font-size:655.81976318px;fill:#000000;fill-opacity:1;stroke:none;font-family:Politics Head;-inkscape-font-specification:Politics Head"
         id="path3044"
         inkscape:connector-curvature="0" />
      <path
         d="m 3168.3335,60.25938 c -7.2585,0 -10.8877,-3.629207 -10.8876,-10.887632 l 0,-308.055968 c -1e-4,-7.25809 -3.6294,-10.8873 -10.8877,-10.88763 l -71.7302,0 c -7.2585,3.3e-4 -10.8877,-3.62888 -10.8877,-10.88763 l 0,-59.88198 c 0,-7.25802 3.6292,-10.88722 10.8877,-10.88763 l 254.8987,0 c 7.2581,4.1e-4 10.8873,3.62961 10.8876,10.88763 l 0,59.88198 c -3e-4,7.25875 -3.6295,10.88796 -10.8876,10.88763 l -71.7303,0 c -7.2587,3.3e-4 -10.8879,3.62954 -10.8877,10.88763 l 0,308.055968 c -2e-4,7.258425 -3.6294,10.887632 -10.8876,10.887632 l -67.8876,0"
         style="font-size:655.81976318px;fill:#000000;fill-opacity:1;stroke:none;font-family:Politics Head;-inkscape-font-specification:Politics Head"
         id="path3046"
         inkscape:connector-curvature="0" />
      <path
         d="m 3398.575,60.25938 c -1.9214,0 -3.5225,-0.533707 -4.8034,-1.601122 -1.2809,-1.067412 -1.9213,-2.241568 -1.9213,-3.52247 0,-1.707857 0.3202,-3.202236 0.9607,-4.483142 l 156.5897,-309.657086 c 2.1347,-4.05585 3.2021,-6.72439 3.2023,-8.00561 -2e-4,-4.48281 -2.8822,-6.72438 -8.6461,-6.72472 l -130.3313,0 c -7.2585,3.4e-4 -10.8877,-3.62887 -10.8877,-10.88763 l 0,-58.92131 c 0,-7.25801 3.6292,-10.88721 10.8877,-10.88763 l 272.511,0 c 4.9098,4.2e-4 7.3648,2.0285 7.3652,6.08427 -4e-4,1.2813 -0.8543,3.62961 -2.5618,7.04494 l -153.7078,303.252591 c -3.4159,6.191099 -5.1237,9.820306 -5.1236,10.887633 -1e-4,3.842777 2.8819,5.764122 8.6461,5.76404 l 138.337,0 c 7.2581,8.2e-5 10.8873,3.629289 10.8876,10.887633 l 0,59.881981 c -3e-4,7.258425 -3.6295,10.887632 -10.8876,10.887632 l -280.5167,0"
         style="font-size:655.81976318px;fill:#000000;fill-opacity:1;stroke:none;font-family:Politics Head;-inkscape-font-specification:Politics Head"
         id="path3048"
         inkscape:connector-curvature="0" />
      <path
         d="m 3900.6869,66.66387 -6.7247,0 c -32.0226,-6e-6 -61.4832,-8.646059 -88.3819,-25.938184 -26.8989,-17.505568 -44.1911,-39.81451915 -51.8764,-66.926919 -1.2809,-4.483052 -1.9214,-7.685294 -1.9213,-9.606735 -1e-4,-3.202145 1.8145,-5.443715 5.4438,-6.724714 l 58.2808,-21.134817 c 1.4943,-0.640324 3.0954,-0.960548 4.8034,-0.960673 4.91,1.25e-4 8.219,2.455177 9.927,7.365163 3.6291,11.314705 11.4212,21.241655 23.3763,29.780878 11.9549,8.325916 25.5111,12.488831 40.6686,12.488755 l 7.0449,0 c 17.7189,7.6e-5 32.0222,-4.696546 42.9101,-14.089877 10.8874,-9.606636 16.3312,-21.348189 16.3314,-35.224695 -2e-4,-14.516704 -5.6575,-26.258257 -16.9719,-35.224694 -11.1013,-9.179598 -25.4047,-14.089708 -42.9101,-14.730328 l -41.3089,-1.60112 c -7.2586,-0.42679 -10.8878,-4.056 -10.8876,-10.88763 l 0,-47.073 c -2e-4,-6.83122 3.629,-10.46043 10.8876,-10.88764 l 41.3089,-1.60112 c 17.7189,-0.6402 31.3818,-4.69637 40.9888,-12.16853 9.6065,-7.68512 14.4098,-18.35926 14.4101,-32.02245 -3e-4,-12.59519 -5.5508,-23.26933 -16.6517,-32.02245 -10.8878,-8.96595 -25.7249,-13.44909 -44.5112,-13.44943 l -7.3652,0 c -13.2361,3.4e-4 -25.1911,4.05651 -35.8651,12.16853 -10.4608,7.89919 -17.6125,17.93288 -21.455,30.10111 -1.708,4.91039 -5.017,7.36545 -9.927,7.36516 -1.9215,2.9e-4 -3.5226,-0.31994 -4.8034,-0.96068 l -58.2808,-21.13481 c -3.6293,-1.28059 -5.4439,-3.52216 -5.4438,-6.72472 -1e-4,-1.92103 0.6404,-5.12327 1.9213,-9.60673 7.8988,-27.53895 24.2303,-49.84791 48.9944,-66.92692 24.9773,-17.29171 53.2638,-25.93777 84.8594,-25.93818 l 7.3652,0 c 44.4042,4.1e-4 79.7356,11.10152 105.9943,33.30334 26.2581,22.2026 39.3873,50.16884 39.3876,83.89882 -3e-4,20.06768 -4.1632,37.46653 -12.4887,52.19659 -8.1127,14.73056 -19.6408,25.08448 -34.5843,31.06178 -2.562,1.06763 -3.8429,2.56201 -3.8427,4.48314 -2e-4,1.70808 1.2807,3.20246 3.8427,4.48314 16.4379,7.25863 29.2469,18.67996 38.427,34.26403 9.3929,15.584413 14.0895,34.157415 14.0898,55.719058 -3e-4,36.932639 -12.916,67.0337118 -38.7471,90.303307 -25.6182,23.056169 -61.0564,34.584239 -106.3146,34.584245"
         style="font-size:655.81976318px;fill:#000000;fill-opacity:1;stroke:none;font-family:Politics Head;-inkscape-font-specification:Politics Head"
         id="path3050"
         inkscape:connector-curvature="0" />
      <path
         d="m 4267.9845,-275.97634 -7.3652,0 c -17.0788,3.4e-4 -31.4889,5.33741 -43.2303,16.01123 -11.5282,10.67446 -17.2922,24.01713 -17.2921,40.02806 -10e-5,16.01149 5.6572,28.9272 16.9719,38.74716 11.3144,9.60697 25.8313,14.41033 43.5505,14.4101 l 7.3652,0 c 17.7189,2.3e-4 32.2357,-4.37617 43.5505,-13.1292 11.3144,-8.96604 16.9717,-22.30871 16.9719,-40.02806 -2e-4,-17.07834 -5.9778,-30.6345 -17.9326,-40.66851 -11.9552,-10.24686 -26.1518,-15.37044 -42.5898,-15.37078 m -7.3652,-81.65724 7.3652,0 c 45.8986,4.1e-4 82.4042,12.5959 109.5168,37.78649 27.112,24.97786 40.6681,60.09578 40.6685,105.35385 l 0,132.252721 c -4e-4,47.39332 -13.4498,84.1123584 -40.3483,110.157225 -26.6857,25.831449 -63.298,38.747158 -109.837,38.747164 l -7.3652,0 c -27.326,-6e-6 -52.8371,-6.511231 -76.5336,-19.533694 -23.6967,-13.235919 -41.8428,-31.488697 -54.4382,-54.7583883 -1.0675,-1.7077944 -1.6012,-2.8819497 -1.6011,-3.5224697 -1e-4,-1.921273 1.7078,-3.629136 5.1236,-5.123592 l 57.9606,-25.297735 c 4.6965,-2.348208 7.6853,-3.522364 8.9663,-3.522469 1.7077,1.05e-4 3.6291,1.601226 5.764,4.803367 5.1235,8.112447 12.7021,14.410189 22.736,18.893245 10.0335,4.269738 20.7077,6.404566 32.0224,6.40449 l 7.3652,0 c 17.2919,7.6e-5 31.702,-5.336994 43.2303,-16.011224 11.5278,-10.887531 17.2919,-26.15155 17.2921,-45.792103 l 0,-32.022447 c -2e-4,-3.20208 -0.9609,-5.44364 -2.882,-6.72472 -1.9216,-1.28072 -4.1632,-0.96049 -6.7247,0.96068 -7.0452,5.97769 -16.8654,11.10128 -29.4607,15.370772 -12.5957,4.269816 -24.1237,6.404643 -34.5842,6.40449 l -7.045,0 c -40.7753,1.53e-4 -73.8652,-11.207692 -99.2696,-33.623572 -25.4045,-22.4155 -38.1067,-53.58399 -38.1067,-93.50555 0,-42.26931 13.3427,-75.78611 40.0281,-100.55049 26.8988,-24.76362 63.6178,-37.14563 110.1572,-37.14604"
         style="font-size:655.81976318px;fill:#000000;fill-opacity:1;stroke:none;font-family:Politics Head;-inkscape-font-specification:Politics Head"
         id="path3052"
         inkscape:connector-curvature="0" />
    </g>
    <g
       style="font-size:52.39083862px;font-style:normal;font-weight:normal;line-height:125%;letter-spacing:0px;word-spacing:0px;fill:#000000;fill-opacity:1;stroke:none;font-family:Sans"
       id="text4059"
       transform="matrix(0.28823363,0,0,0.28823363,-222.39916,642.45289)">
      <path
         d="m 2317.4895,615.51025 c -4.3489,0 -6.5233,-2.17442 -6.5232,-6.52327 l 0,-235.41343 c -1e-4,-4.34861 2.1743,-6.52303 6.5232,-6.52328 l 43.5525,0 c 2.9418,2.5e-4 4.9243,1.15142 5.9477,3.4535 l 53.9129,123.55848 c 3.0696,7.54664 4.6045,12.59898 4.6047,15.15702 l 1.9186,0 c -2e-4,-2.04641 1.5347,-7.09875 4.6046,-15.15702 l 52.5699,-123.55848 c 0.8952,-2.30208 2.8778,-3.45325 5.9477,-3.4535 l 43.3606,0 c 4.3486,2.5e-4 6.523,2.17467 6.5233,6.52328 l 0,235.41343 c -3e-4,4.34885 -2.1747,6.52327 -6.5233,6.52327 l -39.7152,0 c -4.3491,0 -6.5235,-2.17442 -6.5233,-6.52327 l 0,-65.4246 c -2e-4,-6.52319 0.1277,-13.55809 0.3837,-21.10471 0.3836,-7.67433 0.8312,-14.64528 1.3431,-20.91284 0.5114,-6.26734 1.023,-12.02317 1.5349,-17.26749 0.5114,-5.24407 0.8951,-9.52896 1.1511,-12.85469 0.3835,-3.32544 0.5754,-5.11614 0.5756,-5.37211 l -1.5349,0 c -2e-4,0.38387 -0.7676,3.13388 -2.3023,8.25003 -1.4072,5.11643 -3.2619,11.19202 -5.564,18.22679 -2.1746,6.90711 -4.0932,12.47107 -5.7558,16.69191 l -30.5059,71.18042 c -0.8955,2.30237 -2.8781,3.45353 -5.9477,3.4535 l -30.314,0 c -3.5816,3e-5 -5.8199,-1.21509 -6.7152,-3.64536 l -29.3547,-71.94787 c -1.6629,-3.96501 -3.6454,-9.52898 -5.9477,-16.6919 -2.3024,-7.29059 -4.285,-13.55804 -5.9477,-18.80238 -1.6629,-5.37196 -2.5582,-8.18592 -2.686,-8.44189 l -0.9593,0 c -10e-5,0.25597 0.1917,2.04667 0.5755,5.37211 0.3837,3.32574 0.8314,7.67458 1.3431,13.04655 0.5115,5.24433 1.0231,11.06411 1.5349,17.45935 0.5115,6.39547 0.9592,13.49432 1.343,21.29657 0.3836,7.67453 0.5755,14.90128 0.5756,21.68029 l 0,65.80832 c -1e-4,4.34885 -2.1745,6.52327 -6.5233,6.52327 l -40.4827,0"
         style="font-size:392.93130493px;font-variant:normal;font-stretch:normal;text-align:center;text-anchor:middle;fill:#000000;fill-opacity:1;stroke:none;font-family:Politics Head;-inkscape-font-specification:Politics Head"
         id="path3000"
         inkscape:connector-curvature="0" />
      <path
         d="m 2662.0719,527.44606 45.0873,0 c 3.3255,9e-5 4.6685,-1.34294 4.0291,-4.02908 l -22.064,-82.88395 -0.9593,-7.8663 -6.7152,0 -0.9593,7.8663 -22.2558,82.88395 c -0.6397,2.68614 0.6394,4.02917 3.8372,4.02908 m 59.6687,48.92455 -73.8664,0 c -2.4304,4e-5 -3.9013,0.76748 -4.4128,2.30233 l -9.0175,33.9594 c -0.5117,1.91861 -1.7908,2.87791 -3.8372,2.87791 l -47.3897,0 c -2.9419,0 -4.4128,-0.9593 -4.4128,-2.87791 0,-1.15116 0.2558,-2.36628 0.7674,-3.64536 l 70.2212,-237.90763 c 0.7673,-2.6858 2.8138,-4.02883 6.1395,-4.02908 l 58.1339,0 c 3.3254,2.5e-4 5.372,1.34328 6.1396,4.02908 l 70.4129,239.44252 c 0.2556,0.76745 0.3835,1.47094 0.3838,2.11047 -3e-4,1.91861 -1.4072,2.87791 -4.221,2.87791 l -47.5815,0 c -2.0467,0 -3.3897,-0.9593 -4.0291,-2.87791 l -9.0175,-33.9594 c -0.5117,-1.53485 -1.9827,-2.30229 -4.4128,-2.30233"
         style="font-size:392.93130493px;font-variant:normal;font-stretch:normal;text-align:center;text-anchor:middle;fill:#000000;fill-opacity:1;stroke:none;font-family:Politics Head;-inkscape-font-specification:Politics Head"
         id="path3002"
         inkscape:connector-curvature="0" />
      <path
         d="m 2902.6655,619.34747 c -26.3489,0 -46.0467,-6.01164 -59.0931,-18.03493 -13.0466,-12.02326 -19.5699,-29.09887 -19.5699,-51.22688 l 0,-115.69218 c 0,-21.36032 6.7151,-38.24407 20.1454,-50.6513 13.5582,-12.40677 33.064,-18.61027 58.5176,-18.61052 l 28.3955,0 c 19.1859,2.5e-4 35.4941,4.41305 48.9245,13.23841 13.558,8.69793 22.5115,20.84911 26.8606,36.45359 0.7672,2.68625 1.1509,4.60486 1.1511,5.75583 -2e-4,1.9188 -1.0874,3.26183 -3.2616,4.02908 l -34.9187,12.66283 -2.8779,0.57558 c -2.9421,1.8e-4 -4.9246,-1.47076 -5.9477,-4.4128 -3.8374,-12.91845 -13.8142,-19.37776 -29.9303,-19.37796 l -28.3955,0 c -7.4187,2e-4 -13.4303,2.55834 -18.0349,7.67444 -4.6047,4.98857 -6.9071,11.12812 -6.907,18.41865 l 0,104.18052 c -10e-5,7.6745 2.2383,13.94195 6.7152,18.80237 4.6045,4.86053 10.6801,7.29077 18.2267,7.29072 l 29.3548,0 c 7.5464,5e-5 13.558,-2.49414 18.0349,-7.48258 4.6045,-4.98833 6.9068,-11.19182 6.907,-18.61051 l 0,-16.30819 c -2e-4,-4.34875 -2.1746,-6.52318 -6.5233,-6.52327 l -24.75,0 c -4.349,9e-5 -6.5234,-2.17433 -6.5233,-6.52327 l 0,-29.73846 c -10e-5,-4.34871 2.1743,-6.52313 6.5233,-6.52327 l 76.5525,0 c 4.3486,1.4e-4 6.5231,2.17456 6.5233,6.52327 l 0,64.84902 c -2e-4,21.36056 -6.7793,38.24431 -20.3373,50.6513 -13.4304,12.40701 -32.8723,18.61051 -58.3257,18.61051 l -27.4362,0"
         style="font-size:392.93130493px;font-variant:normal;font-stretch:normal;text-align:center;text-anchor:middle;fill:#000000;fill-opacity:1;stroke:none;font-family:Politics Head;-inkscape-font-specification:Politics Head"
         id="path3004"
         inkscape:connector-curvature="0" />
      <path
         d="m 3067.2823,615.51025 c -4.3489,0 -6.5234,-2.17442 -6.5233,-6.52327 l 0,-233.49482 c -1e-4,-4.34861 2.1744,-6.52303 6.5233,-6.52328 l 101.6863,0 c 25.965,2.5e-4 45.9825,6.71538 60.0525,20.14541 14.0696,13.30257 21.1045,31.65726 21.1047,55.0641 l 0,96.12236 c -2e-4,23.40709 -7.0991,41.82573 -21.2966,55.25596 -14.07,13.30237 -34.0235,19.95354 -59.8606,19.95354 l -101.6863,0 m 53.721,-48.92455 48.5409,0 c 7.8022,5e-5 14.1975,-2.36623 19.1861,-7.09885 5.1161,-4.86042 7.6742,-11.25578 7.6744,-19.1861 l 0,-95.54678 c -2e-4,-8.05798 -2.5583,-14.51729 -7.6744,-19.37796 -5.1165,-4.98819 -11.5118,-7.48238 -19.1861,-7.48257 l -48.5409,0 c -4.3489,1.9e-4 -6.5233,2.17462 -6.5232,6.52327 l 0,135.64572 c -1e-4,4.3489 2.1743,6.52332 6.5232,6.52327"
         style="font-size:392.93130493px;font-variant:normal;font-stretch:normal;text-align:center;text-anchor:middle;fill:#000000;fill-opacity:1;stroke:none;font-family:Politics Head;-inkscape-font-specification:Politics Head"
         id="path3006"
         inkscape:connector-curvature="0" />
      <path
         d="m 3459.0624,615.51025 -150.0353,0 c -4.3489,0 -6.5233,-2.17442 -6.5232,-6.52327 l 0,-233.49482 c -1e-4,-4.34861 2.1743,-6.52303 6.5232,-6.52328 l 150.0353,0 c 4.3487,2.5e-4 6.5231,2.17467 6.5233,6.52328 l 0,35.878 c -2e-4,4.34905 -2.1746,6.52347 -6.5233,6.52328 l -96.3142,0 c -4.3489,1.9e-4 -6.5234,2.17462 -6.5233,6.52327 l 0,35.878 c -1e-4,4.349 2.1744,6.52343 6.5233,6.52328 l 79.0467,0 c 4.3487,1.5e-4 6.5231,2.17457 6.5233,6.52327 l 0,35.87801 c -2e-4,4.34895 -2.1746,6.52337 -6.5233,6.52327 l -79.0467,0 c -4.3489,1e-4 -6.5234,2.17452 -6.5233,6.52327 l 0,37.79662 c -1e-4,4.3489 2.1744,6.52332 6.5233,6.52327 l 96.3142,0 c 4.3487,5e-5 6.5231,2.17447 6.5233,6.52328 l 0,35.878 c -2e-4,4.34885 -2.1746,6.52327 -6.5233,6.52327"
         style="font-size:392.93130493px;font-variant:normal;font-stretch:normal;text-align:center;text-anchor:middle;fill:#000000;fill-opacity:1;stroke:none;font-family:Politics Head;-inkscape-font-specification:Politics Head"
         id="path3008"
         inkscape:connector-curvature="0" />
      <path
         d="m 3636.7257,615.51025 -110.5119,0 c -4.3489,0 -6.5233,-2.17442 -6.5233,-6.52327 l 0,-233.49482 c 0,-4.34861 2.1744,-6.52303 6.5233,-6.52328 l 99.1921,0 c 23.9185,2.5e-4 42.6569,5.75607 56.2153,17.26749 13.6858,11.51188 20.5289,27.884 20.5291,49.11642 -2e-4,10.74438 -2.4944,20.65719 -7.4826,29.73845 -4.8607,8.95365 -11.5118,15.54087 -19.9535,19.76168 -1.5351,0.89548 -2.3025,1.91874 -2.3024,3.06978 -10e-5,1.2792 0.7673,2.30245 2.3024,3.06977 20.9766,10.2327 31.401,28.07576 31.2733,53.52922 -0.1281,23.15127 -6.3956,40.80247 -18.8024,52.95363 -12.2792,12.0233 -29.099,18.03493 -50.4594,18.03493 m -56.7909,-148.69226 45.2792,0 c 8.3139,1.5e-4 14.6453,-2.17428 18.9943,-6.52328 4.3487,-4.34869 6.5231,-10.68009 6.5233,-18.99423 -2e-4,-8.3138 -2.1746,-14.58125 -6.5233,-18.80238 -4.349,-4.34865 -10.6804,-6.52307 -18.9943,-6.52327 l -45.2792,0 c -4.3489,2e-4 -6.5233,2.17462 -6.5232,6.52327 l 0,37.79661 c -10e-5,4.349 2.1743,6.52343 6.5232,6.52328 m 0,101.68632 49.3083,0 c 7.1627,5e-5 13.1104,-2.43019 17.8431,-7.29072 4.8603,-4.98832 7.2905,-11.70345 7.2907,-20.1454 -2e-4,-8.05808 -2.4304,-14.58135 -7.2907,-19.56982 -4.7327,-5.11619 -10.6804,-7.67434 -17.8431,-7.67444 l -49.3083,0 c -4.3489,10e-5 -6.5233,2.17452 -6.5232,6.52327 l 0,41.63384 c -10e-5,4.3489 2.1743,6.52332 6.5232,6.52327"
         style="font-size:392.93130493px;font-variant:normal;font-stretch:normal;text-align:center;text-anchor:middle;fill:#000000;fill-opacity:1;stroke:none;font-family:Politics Head;-inkscape-font-specification:Politics Head"
         id="path3010"
         inkscape:connector-curvature="0" />
      <path
         d="m 3832.8076,619.34747 c -26.4769,0 -46.2386,-6.01164 -59.2851,-18.03493 -12.9186,-12.02326 -19.378,-29.09887 -19.3779,-51.22688 l 0,-176.51211 c -1e-4,-4.34861 2.1744,-6.52303 6.5232,-6.52328 l 40.6746,0 c 4.3487,2.5e-4 6.5232,2.17467 6.5232,6.52328 l 0,170.75628 c 0,7.6745 2.2383,13.94195 6.7152,18.80237 4.6045,4.86053 10.6801,7.29077 18.2268,7.29072 l 27.4361,0 c 7.4185,5e-5 13.3662,-2.49414 17.8431,-7.48258 4.6045,-4.98833 6.9708,-11.19182 7.0988,-18.61051 l 0,-170.75628 c -10e-5,-4.34861 2.1743,-6.52303 6.5233,-6.52328 l 40.6745,0 c 4.3487,2.5e-4 6.5231,2.17467 6.5233,6.52328 l 0,176.51211 c -2e-4,21.36056 -6.7793,38.24431 -20.3373,50.6513 -13.4304,12.40701 -32.8723,18.61051 -58.3257,18.61051 l -27.4361,0"
         style="font-size:392.93130493px;font-variant:normal;font-stretch:normal;text-align:center;text-anchor:middle;fill:#000000;fill-opacity:1;stroke:none;font-family:Politics Head;-inkscape-font-specification:Politics Head"
         id="path3012"
         inkscape:connector-curvature="0" />
      <path
         d="m 4104.6746,472.38196 c 7.4185,1.4e-4 13.7499,-2.30219 18.9943,-6.907 5.244,-4.60451 7.8661,-10.29638 7.8663,-17.07563 l 0,-6.71513 c -2e-4,-6.77891 -2.6223,-12.40683 -7.8663,-16.88377 -5.1165,-4.60447 -11.4479,-6.9068 -18.9943,-6.90699 l -45.8547,0 c -4.349,1.9e-4 -6.5234,2.17462 -6.5233,6.52327 l 0,41.44197 c -1e-4,4.349 2.1743,6.52342 6.5233,6.52328 l 45.8547,0 m -99.5758,143.12829 c -4.3489,0 -6.5233,-2.17442 -6.5233,-6.52327 l 0,-233.49482 c 0,-4.34861 2.1744,-6.52303 6.5233,-6.52328 l 99.0003,0 c 24.4301,2.5e-4 43.6162,6.84329 57.5582,20.52913 13.9417,13.55839 20.9127,31.97702 20.9129,55.25596 -2e-4,26.86069 -10.8084,46.87816 -32.4245,60.05249 -1.9188,1.15128 -2.8781,2.43035 -2.8779,3.83722 -2e-4,1.15127 0.3196,2.55825 0.9593,4.22094 l 37.6047,91.5177 c 1.6626,3.83722 2.494,6.52327 2.4942,8.05816 -2e-4,2.04652 -1.5351,3.06977 -4.6046,3.06977 l -46.4304,0 c -1.663,0 -2.942,-1.02325 -3.8372,-3.06977 l -37.4129,-90.17467 c -0.7676,-1.7906 -2.1106,-2.68595 -4.0291,-2.68605 l -33.1919,0 c -4.349,1e-4 -6.5234,2.17452 -6.5233,6.52327 l 0,82.88395 c -1e-4,4.34885 -2.1745,6.52327 -6.5233,6.52327 l -40.6745,0"
         style="font-size:392.93130493px;font-variant:normal;font-stretch:normal;text-align:center;text-anchor:middle;fill:#000000;fill-opacity:1;stroke:none;font-family:Politics Head;-inkscape-font-specification:Politics Head"
         id="path3014"
         inkscape:connector-curvature="0" />
      <path
         d="m 4305.5531,619.34747 c -26.349,0 -46.0467,-6.01164 -59.0932,-18.03493 -13.0465,-12.02326 -19.5698,-29.09887 -19.5698,-51.22688 l 0,-115.69218 c 0,-21.36032 6.7151,-38.24407 20.1454,-50.6513 13.5581,-12.40677 33.064,-18.61027 58.5176,-18.61052 l 28.3954,0 c 19.186,2.5e-4 35.4942,4.41305 48.9246,13.23841 13.558,8.69793 22.5115,20.84911 26.8605,36.45359 0.7673,2.68625 1.151,4.60486 1.1512,5.75583 -2e-4,1.9188 -1.0874,3.26183 -3.2616,4.02908 l -34.9187,12.66283 -2.878,0.57558 c -2.942,1.8e-4 -4.9245,-1.47076 -5.9476,-4.4128 -3.8374,-12.91845 -13.8142,-19.37776 -29.9304,-19.37796 l -28.3954,0 c -7.4187,2e-4 -13.4303,2.55834 -18.0349,7.67444 -4.6048,4.98857 -6.9071,11.12812 -6.907,18.41865 l 0,104.18052 c -1e-4,7.6745 2.2383,13.94195 6.7151,18.80237 4.6046,4.86053 10.6802,7.29077 18.2268,7.29072 l 29.3547,0 c 7.5464,5e-5 13.5581,-2.49414 18.035,-7.48258 4.6045,-4.98833 6.9068,-11.19182 6.907,-18.61051 l 0,-16.30819 c -2e-4,-4.34875 -2.1746,-6.52318 -6.5233,-6.52327 l -24.7501,0 c -4.3489,9e-5 -6.5234,-2.17433 -6.5232,-6.52327 l 0,-29.73846 c -2e-4,-4.34871 2.1743,-6.52313 6.5232,-6.52327 l 76.5526,0 c 4.3486,1.4e-4 6.523,2.17456 6.5232,6.52327 l 0,64.84902 c -2e-4,21.36056 -6.7792,38.24431 -20.3372,50.6513 -13.4305,12.40701 -32.8724,18.61051 -58.3258,18.61051 l -27.4361,0"
         style="font-size:392.93130493px;font-variant:normal;font-stretch:normal;text-align:center;text-anchor:middle;fill:#000000;fill-opacity:1;stroke:none;font-family:Politics Head;-inkscape-font-specification:Politics Head"
         id="path3016"
         inkscape:connector-curvature="0" />
    </g>
  </g>
</svg>
